<?xml version="1.0" encoding="utf-8"?>
<!-- Generator: Adobe Illustrator 27.1.1, SVG Export Plug-In . SVG Version: 6.00 Build 0)  -->
<svg version="1.1" id="Capa_1" xmlns="http://www.w3.org/2000/svg" xmlns:xlink="http://www.w3.org/1999/xlink" x="0px" y="0px"
	 viewBox="0 0 1018 932" style="enable-background:new 0 0 1018 932;" xml:space="preserve">
<style type="text/css">
	.st0{fill:#C93E40;stroke:#000000;stroke-miterlimit:10;}
	.st1{fill:#FFFFFF;}
</style>
<rect y="0" class="st0" width="1018" height="932"/>
<path class="st1" d="M871.5,427.5h-44.2c-2.2,0-4,1.8-4,3.9V446c0,2.2,1.8,3.9,3.9,3.9h33.1c8.8,0,16.3,6.9,16.5,15.6
	c0.1,8.9-7,16.1-15.9,16.1h-33.6c-2.2,0-4,1.8-4,4v5.7v32c0,2.2,1.8,4,4,4h44c7.5,0,13.8-5.2,15.3-12.2l0,0
	c1.6,7,7.8,12.2,15.3,12.2h44.2c2.2,0,4-1.8,4-4v-37.7l0,0v0c0-2.2-1.8-4-4-4h-33.1v0c-8.6-0.2-15.5-7.2-15.5-15.9
	s6.9-15.7,15.5-15.9v0h33.2c2.2,0,3.9-1.8,3.9-3.9v-0.3l0,0v-13.4l0,0v-0.8c0-2.2-1.8-3.9-4-3.9h-0.1h-44.1
	c-7.5,0-13.8,5.2-15.3,12.2l0,0C885.3,432.8,879,427.5,871.5,427.5z"/>
<path class="st1" d="M930,141.9v36.8c0,2.1-2.2,3.4-4,2.4c-26.9-15.3-67.8-38.5-79.9-45.4c-1.5-0.8-6.1-0.4-7-0.4h-9.6
	c-3.7,0-6.7,3-6.7,6.7V229c0,3.7,3,6.7,6.7,6.7h9.8c2.4,0,4.6-1.9,4.6-4.3c0,0-0.1-18.8-0.2-39.3c0-2.1,2.2-3.4,4-2.4l79.9,45.4
	c1.3,0.8,5.6,0.6,6.4,0.6h12.5c2.4,0,4.6-1.9,4.6-4.3c0,0-0.3-88.9-0.3-91.8c0-2.4-2-4.4-4.4-4.4h-9.6
	C933,135.2,930,138.2,930,141.9z"/>
<g>
	<path class="st1" d="M85.5,172.4H73.4c-2.2,0-3.9,1.7-3.9,3.9V256v0.1c0,2.1,1.7,3.9,3.9,3.9l0,0h116.7l0,0c2.1,0,3.9-1.7,3.9-3.9
		V256v-79.8c0-2.1-1.7-3.9-3.9-3.9H178c-2.3,0-4.2,1.9-4.2,4.2l-0.6,22.2c0,9.9-8.5,15.4-15.4,15.4c-10,0-15.6-9-15.6-15.4
		c0-8.7-0.3-16.2-0.3-22.2c0-2.3-1.9-4.2-4.2-4.2h-11.8c-2.3,0-4.2,1.9-4.2,4.2l-0.6,22.4c0,7.1-5.4,15.4-15.4,15.4
		c-7.6,0-15.4-5.7-15.4-15.8c0-8.7,0-16.1,0-22.1C90.2,174.2,87.8,172.4,85.5,172.4z"/>
	<path class="st1" d="M85.5,442.4H73.4c-2.2,0-3.9,1.7-3.9,3.9V526v0.1c0,2.2,1.7,3.9,3.9,3.9l0,0h116.7l0,0c2.1,0,3.9-1.7,3.9-3.9
		V526v-79.8c0-2.1-1.7-3.9-3.9-3.9H178c-2.3,0-4.2,1.9-4.2,4.2l-0.6,22.2c0,9.9-8.5,15.4-15.4,15.4c-10,0-42,0.2-52.1,0.2
		c-7.6,0-15.4-5.7-15.4-15.8c0-8.7,0-16.1,0-22.1C90.2,444.3,87.8,442.4,85.5,442.4z"/>
	<path class="st1" d="M85.5,47.5H73.4c-2.2,0-3.9,1.7-3.9,3.9v79.8v0.1c0,2.1,1.7,3.9,3.9,3.9l0,0h116.7l0,0c2.1,0,3.9-1.7,3.9-3.9
		v-0.1V93.4c0-2.2-1.7-3.9-3.9-3.9c0,0-25.4-0.1-32.3-0.1c-10,0-15.6-9-15.6-15.4c0-8.7-0.3-16.2-0.3-22.2c0-2.3-1.9-4.2-4.2-4.2
		h-11.8c-2.3,0-4.2,1.9-4.2,4.2l-0.6,22.4c0,7.1-5.4,15.4-15.4,15.4c-7.6,0-15.4-5.7-15.4-15.8c0-8.7,0-16.1,0-22.1
		C90.2,49.4,87.8,47.5,85.5,47.5z"/>
	<path class="st1" d="M109.7,710.2c-21.9,0-39.7,7.3-40.2,29.1h0v64.6c0,2.2,1.7,3.9,3.9,3.9h116.7c2.1,0,3.9-1.7,3.9-3.9v-37
		c0-2.2-1.8-4.1-4.1-4.1h-30.6c-10.7,0-17.3-6.9-17.3-15.5c0-8.6,7-15.4,17.8-15.4c14.7,0,29.9,0,29.9,0c2.4,0,4.3-1.9,4.3-4.3
		v-13.1c0-2.1-1.9-4.3-4.4-4.3C184.9,710.2,109.7,710.2,109.7,710.2z M90.8,747.3c0-8.6,7-15.6,15.6-15.6s15.6,7,15.6,15.6
		c0,8.6-7,15.6-15.6,15.6S90.8,755.9,90.8,747.3z"/>
	<path class="st1" d="M109.7,572.6c-21.9,0-39.7,7.3-40.2,29.1h0v27.6v37l0,0c0,2.2,1.7,3.9,3.9,3.9l0,0h116.7l0,0
		c2.1,0,3.9-1.7,3.9-3.9l0,0v-37v-27.6h0c-0.5-21.8-18.3-29.1-40.2-29.1c0,0-0.2,0-0.5,0c-2,0-41,0-43.1,0
		C109.9,572.6,109.7,572.6,109.7,572.6z M90.8,609.8c0-7.8,5.8-14.2,13.2-15.4c10.7,0.1,17.5,6.9,17.5,15.4c0,8.5-6.5,15.3-17,15.5
		C96.8,624.3,90.8,617.8,90.8,609.8z M172.7,609.8c0,8-6,14.5-13.7,15.5c-10.5-0.1-17-6.9-17-15.5s6.8-15.2,17.5-15.4
		C167,595.5,172.7,602,172.7,609.8z"/>
	<path class="st1" d="M109.7,303.3c-21.9,0-39.7,7.3-40.2,29.1h0V360v37l0,0c0,2.1,1.7,3.9,3.9,3.9l0,0h116.7l0,0
		c2.1,0,3.9-1.7,3.9-3.9l0,0v-37v-27.6h0c-0.5-21.8-18.3-29.1-40.2-29.1c0,0-0.2,0-0.5,0c-2,0-41,0-43.1,0
		C109.9,303.3,109.7,303.3,109.7,303.3z M159.5,325.1c7.5,1.1,13.2,7.6,13.2,15.4c0,8-6,14.5-13.7,15.5c0,0-0.1,0-0.1,0l0,0h-55
		v-0.1c-7.5-1.1-13.2-7.6-13.2-15.4c0-7.8,5.8-14.2,13.2-15.4c0.7,0,1.3,0,2,0.1h51.4C158.1,325.1,158.8,325.1,159.5,325.1z"/>
</g>
<path class="st1" d="M258.3,563.6v36.5c0,2.1,1.7,3.8,3.8,3.8H377c2.1,0,3.8-1.7,3.8-3.8v-36.4c0-2.2-1.8-4-4-4c-7,0-95,0-114.7,0
	C260,559.7,258.3,561.5,258.3,563.6z"/>
<path class="st1" d="M256.4,395.5v33.1v0.1v70v9.8c0,2.1,1.7,3.9,3.9,3.9h12.1c2.3,0,4.8-1.9,4.8-4.2c0-2.8,0-5.8,0-9.2
	c0-0.1,0-0.2,0-0.3c0-4.4,0-8,0-13.2c0.3-9.7,8-15.2,15.4-15.2c10.1,0,42.1,0.2,52.1,0.2c7,0,17,5.5,17,15.4c0,0,0.5,3.8-1.5,5.1
	c-1.8,1.3-3.2,0.9-7,0.9c-6,0-20,0-20,0c-2.3,0-4.2,2.1-4.2,4.4v12.2c0,2.1,1.7,3.9,3.9,3.9h44h0.1c2.1,0,3.9-1.7,3.9-3.9l0,0v-12
	v-30.8l0,0v-37l0,0v-0.1c0-0.8-0.2-1.6-0.7-2.2c-0.7-1.1-1.9-1.8-3.3-1.8c-4.9,0-51.5-0.1-84.3-0.1c-6.3,0-15.4-5.4-15.4-15.6
	c0-7.8,0-11,0-13.5c0-2.2-1.8-3.9-3.9-3.9h-12.9C258.1,391.6,256.4,393.4,256.4,395.5z"/>
<path class="st1" d="M277.9,813.6c0-8.6,0-16,0-21.9c0-2.3-2.4-4.2-4.7-4.2h-12c-2.1,0-3.9,1.7-3.9,3.9v79.2v0.1
	c0,2.1,1.7,3.9,3.9,3.9H377l0,0c2.1,0,3.9-1.7,3.9-3.9v-0.1v-67.3v-11.9l0,0c0-2.1-1.7-3.9-3.9-3.9h-0.1h-43.7
	c-2.1,0-3.9,1.7-3.9,3.9v12.1c0,2.3,1.9,4.4,4.2,4.4c0,0,13.9,0,19.8,0c3.7,0,5.1-0.3,6.9,0.9c1.9,1.3,1.4,5,1.4,5
	c0,9.8-9.9,15.3-16.9,15.3c-9.9,0-41.7,0.2-51.7,0.2C285.6,829.3,277.9,823.6,277.9,813.6z"/>
<path class="st1" d="M257.3,656.9V671c0,2.1,1.7,3.8,3.8,3.8h32.2c8.5,0,15.9,6.7,16,15.2c0.1,8.7-6.8,15.7-15.5,15.7h-32.7
	c-2.1,0-3.9,1.7-3.9,3.9v5.6v31.1c0,2.2,1.8,3.9,3.9,3.9h115.7c2.2,0,3.9-1.8,3.9-3.9v-36.7l0,0v0c0-2.2-1.8-3.9-3.9-3.9h-32.2v0
	c-8.4-0.2-15.1-7-15.1-15.4s6.7-15.3,15.1-15.4v0H377c2.1,0,3.8-1.7,3.8-3.8v-0.3l0,0v-13l0,0v-0.8c0-2.1-1.7-3.8-3.9-3.8h-0.1
	H261.1C259,653,257.3,654.8,257.3,656.9z"/>
<path class="st1" d="M259.7,179.5c-2.2,0-3.9,1.8-3.9,3.9v38.1v0.1c0,2.2,1.8,3.9,3.9,3.9l0,0h117.2l0,0c2.2,0,3.9-1.8,3.9-3.9v-0.1
	v-80.1c0-2.2-1.8-3.9-3.9-3.9h-12.1c-2.3,0-4.2,1.9-4.2,4.2l-0.6,22.3c0,10-8.5,15.5-15.5,15.5c-10,0-42.2,0.2-52.3,0.2"/>
<path class="st1" d="M303.7,262.3h-43.2c-2.1,0-3.9,1.7-3.9,3.9v14.2c0,2.1,1.7,3.8,3.8,3.8h32.4c8.6,0,16,6.7,16.1,15.3
	c0.1,8.7-6.9,15.8-15.5,15.8h-32.9c-2.1,0-3.9,1.7-3.9,3.9v5.6v31.3c0,2.2,1.8,3.9,3.9,3.9h116.4c2.2,0,3.9-1.8,3.9-3.9v-36.9l0,0v0
	c0-2.2-1.8-3.9-3.9-3.9h-32.4v0c-8.4-0.2-15.2-7.1-15.2-15.5s6.8-15.4,15.2-15.5v0H377c2.1,0,3.8-1.7,3.8-3.8v-0.3l0,0V267l0,0v-0.8
	c0-2.1-1.7-3.9-3.9-3.9h-0.1h-43.2c-7.3,0-13.5,5.1-15,12C317.1,267.5,311,262.3,303.7,262.3z"/>
<path class="st1" d="M483.7,463c-22.2,0-40.3,7.4-40.8,29.5h0V558c0,2.2,1.8,4,4,4h118.4c2.2,0,4-1.8,4-4v-37.5
	c0-2.3-1.8-4.1-4.1-4.1h-82.9c-10.8,0-17.6-7-17.6-15.7c0-8.7,7.1-15.6,18.1-15.6c14.9,0,82.2,0,82.2,0c2.6,0,4.4-2,4.4-4.4v-13.3
	c0-2.1-1.9-4.4-4.4-4.4C560,463,483.7,463,483.7,463z"/>
<path class="st1" d="M442.9,628.8L442.9,628.8l0,93.1h0c0.5,22.1,18.5,29.5,40.8,29.5c0,0,76.3,0,81.1,0c2.5,0,4.4-2.3,4.4-4.4
	v-13.3c0-2.4-2-4.4-4.4-4.4c0,0-67.3,0-82.2,0c-11,0-18.1-6.9-18.1-15.6c0-7.8,5.4-14.2,14.3-15.5h86.4c2.2,0,4-1.8,4-4v-0.4v-37.1
	v-0.4c0-2.2-1.8-4-4-4h-86.4c-8.9-1.2-14.3-7.6-14.3-15.5c0-8.7,7.1-15.6,18.1-15.6c14.9,0,82.2,0,82.2,0c2.4,0,4.4-2,4.4-4.4v-13.3
	c0-2.1-1.9-4.4-4.4-4.4c-4.8,0-81.1,0-81.1,0C461.5,599.3,443.4,606.7,442.9,628.8z"/>
<path class="st1" d="M536,240.4c-6.6-0.1-12.1-3.5-13.2-9.5c-4.6-17.4-20.4-30.2-39.2-30.2c-22.1,0-40.1,17.7-40.6,39.7h0v15.7v25.6
	c0,2.2,1.8,3.9,3.9,3.9h117.8c2.2,0,3.9-1.8,3.9-3.9v-37.4c0-2.2-1.8-4.1-4.1-4.1C556.4,240.4,541,240.5,536,240.4z M481.3,257.3
	c-10,1-18.3-7.3-17.3-17.3c0.7-7.4,6.7-13.4,14.1-14.1c10-1,18.3,7.3,17.3,17.3C494.6,250.6,488.6,256.6,481.3,257.3z"/>
<path class="st1" d="M741.6,784.5c-2.4,0-4.3,2-4.3,4.3l0,29.7c-0.5,6.9-6.4,9.8-12.3,9.5c-6.6-0.3-12.2-3.5-13.4-9.5
	C707,801,691,788,672,788c-22.3,0-40.4,17.8-40.9,40h0v15.8v25.8c0,2.2,1.8,4,4,4h118.9c2.2,0,4-1.8,4-4v-81.3c0-2.2-1.8-4-4-4
	C753.9,784.5,746.6,784.4,741.6,784.5z M667.9,845.9c-8.7,0-15.7-7-15.7-15.7c0-8.7,7-15.7,15.7-15.7s15.7,7,15.7,15.7
	C683.6,838.8,676.6,845.9,667.9,845.9z"/>
<path class="st1" d="M447.6,326.1c-2.4,0-4,1.7-4,4l0,53.2v37.3l0,0c0,2.2,1.8,3.9,3.9,3.9l0,0h117.3c2.2,0,4.4-1.8,4.4-3.9l0,0
	v-37.3v-27.9l0-25.4c0-2.2-2.2-4-4.4-4c0,0-36.3,0-36.7,0c-2.1,0-41.4,0-43.5,0C484.3,326.1,447.6,326.1,447.6,326.1z M534.4,348.1
	c7.6,1.1,13.4,7.6,13.4,15.5c0,8-6,14.7-13.8,15.6c0,0,0,0-0.1,0l0,0h-55.5v-0.1c-7.5-1.2-13.3-7.6-13.3-15.5
	c0-7.9,5.8-14.4,13.4-15.5c0.7,0,1.4,0,2,0.1h51.9C533,348.2,533.7,348.1,534.4,348.1z"/>
<path class="st1" d="M579.2,54.6l-0.7,22.6c0,7.1-4.2,11.9-9.2,14.2l0-20c0-2.3-2.2-4-4.4-4c0,0-36.5,0-36.9,0c-2.1,0-41.6,0-43.7,0
	c-0.3,0-37.3,0-37.3,0c-2.4,0-4,1.7-4,4l0,53.5v37.5c0,2.2,1.8,4,4,4l0,0h117.9c2.2,0,4.5-1.8,4.5-4v-23.2h26.4l0,0c2.2,0,4-1.8,4-4
	v-0.1v-81c0-2.2-1.8-4-4-4h-12.2C581.1,50.3,579.2,52.3,579.2,54.6z M533.7,120.8h-55.8v-0.1c-7.6-1.2-13.4-7.7-13.4-15.6
	c0-7.9,5.8-14.5,13.5-15.6c0.7,0,1.4,0.1,2,0.1h52.2c0.7-0.1,1.3-0.1,2-0.1c7.6,1.1,13.5,7.7,13.5,15.6
	C547.7,113.2,541.6,119.9,533.7,120.8C533.7,120.8,533.7,120.8,533.7,120.8L533.7,120.8z"/>
<path class="st1" d="M648.1,503H635c-2.2,0-4,1.8-4,4v105.2c0,2.2,1.8,4,4,4h13.2c2.2,0,4-1.8,4-4c0-4.5,0-8.2,0-13.7
	c0-9.3,7.2-15.8,15.7-15.8l86.2-0.2c2.2,0,3.9-1.8,3.9-4v-37.7c0-2.3-1.8-4.1-4-4.1c-5,0-52.5-0.1-86-0.1c-6.4,0-15.7-5.5-15.7-15.9
	c0-8,0-11.3,0-13.8C652.1,504.8,650.3,503,648.1,503z"/>
<path class="st1" d="M652.1,679.7c0-8.8,0-16.6,0-22.7c0-2.4-2.5-4.3-4.9-4.3h-12.3c-2.2,0-4,1.8-4,4v81.4v0.1c0,2.2,1.8,4,4,4h65.4
	c2.4,0,4.8-2,4.8-4.4v-17.5c0-6.6,6.1-15.8,16-15.8c10.3,0,16.3,9.6,16.3,15.8c0,7.3,0,12.3,0,17.5c0,2.4,2,4.4,4.4,4.4H754
	c2.2,0,4-1.8,4-4v-0.1v-81.4c0-2.2-1.8-4-4-4h-65.5c-2.4,0-4.5,1.9-4.5,4.3v22.7c0,8.3-7.6,15.7-16.1,15.7
	C661.2,695.5,652.1,690.2,652.1,679.7z"/>
<path class="st1" d="M717.1,367c22.3,0,40.5,7.4,41,29.6h0v65.9c0,2.2-1.8,4-4,4h-119c-2.2,0-4-1.8-4-4v-37.7c0-2.3,1.8-4.1,4.1-4.1
	h83.4c10.9,0,17.7-7,17.7-15.8s-7.1-15.7-18.2-15.7c-15,0-82.7,0-82.7,0c-2.7,0-4.4-2-4.4-4.4v-13.4c0-2.1,2-4.4,4.5-4.4
	C640.4,367,717.1,367,717.1,367z"/>
<path class="st1" d="M652,190.3c0,2.5,0,0.4,0,8.3c0,9.9,8.6,15.4,14.9,15.8c22.9,0,49.9,0,49.9,0c22.3,0,40.5,7.4,41,29.6h0V310
	c0,2.2-1.8,4-4,4h-119c-2.2,0-4-1.8-4-4v-37.7c0-2.3,1.8-4.1,4.1-4.1h83.4c10.9,0,17.7-7,17.7-15.8s-7.1-15.7-18.2-15.7
	c-15,0-82.7,0-82.7,0c-2.7,0-4.4-2-4.4-4.4V223v-4.1v-3.7v-24.9c0-2.2,1.8-4,4-4H648C650.2,186.3,652,188.1,652,190.3z"/>
<path class="st1" d="M950.3,609.1L950.3,609.1l0,93.6h0c-0.5,22.2-18.7,29.7-41,29.7c0,0-76.7,0-81.5,0c-2.5,0-4.5-2.3-4.5-4.4
	v-13.4c0-2.4,2-4.4,4.4-4.4c0,0,67.7,0,82.7,0c11.1,0,18.2-6.9,18.2-15.7c0-7.8-5.5-14.3-14.4-15.5h-86.8c-2.2,0-4-1.8-4-4v-0.4
	v-37.3v-0.4c0-2.2,1.8-4,4-4h86.8c9-1.3,14.4-7.7,14.4-15.5c0-8.8-7.1-15.7-18.2-15.7c-15,0-82.7,0-82.7,0c-2.4,0-4.4-2-4.4-4.4
	v-13.3c0-2.2,2-4.4,4.5-4.4c4.8,0,81.5,0,81.5,0C931.7,579.5,949.8,586.9,950.3,609.1z"/>
<path class="st1" d="M820,281.1v15.3c0,2.3,1.8,4.1,4.1,4.1H859c9.2,0,17.2,7.2,17.3,16.5c0.2,9.4-7.4,17-16.7,17h-35.4
	c-2.3,0-4.2,1.9-4.2,4.2v6v33.7c0,2.3,1.9,4.2,4.2,4.2h46.4c7.9,0,16-5.3,16.2-12.9c0.1-2.5,0.1-7.8,0-11.5c0-2.2,1.7-3.9,3.9-3.9
	l58.9-0.2c2.3,0,4.1-1.9,4.1-4.2v-39.7c0-2.4-1.9-4.3-4.3-4.3c-4.8,0-27.8,0-58.7-0.1c-2.2,0-3.9-1.8-3.9-3.9c0-3.7,0-9,0-11.5
	c0-7.6-8.3-12.9-16.2-12.9h-46.5C821.9,277,820,278.8,820,281.1z"/>
</svg>
