<?xml version="1.0" encoding="utf-8"?>
<!-- Generator: Adobe Illustrator 27.1.1, SVG Export Plug-In . SVG Version: 6.00 Build 0)  -->
<svg version="1.1" id="alfabeto" xmlns="http://www.w3.org/2000/svg" xmlns:xlink="http://www.w3.org/1999/xlink" x="0px" y="0px"
	 viewBox="0 0 1366 768" style="enable-background:new 0 0 1366 768;" xml:space="preserve">
<style type="text/css">
	.st0{fill:#F8C9CB;}
</style>
<path id="z" class="st0" d="M1280.1,563.7h-38.6c-2.2,0-3.5-2.3-2.5-4.2c16-28.3,40.4-71.1,47.7-83.9c0.9-1.5,0.5-6.4,0.5-7.3v-10.1
	c0-3.9-3.2-7-7-7h-91.4c-3.9,0-7,3.2-7,7v10.3c0,2.5,2,4.8,4.5,4.8c0,0,19.7-0.1,41.3-0.2c2.2,0,3.6,2.3,2.5,4.2l-47.6,83.8
	c-0.8,1.4-0.7,5.8-0.7,6.7v13.1c0,2.5,2,4.8,4.5,4.8c0,0,93.3-0.4,96.3-0.4c2.6,0,4.6-2.1,4.6-4.6v-10.1
	C1287.2,566.9,1284,563.7,1280.1,563.7z"/>
<path id="y" class="st0" d="M1179.2,602.4h-15.4c-2.3,0-4.1,1.9-4.1,4.1v35c0,9.3-7.3,17.3-16.5,17.4c-9.4,0.1-17.1-7.4-17.1-16.8
	v-35.6c0-2.3-1.9-4.2-4.2-4.2h-6.1h-33.9c-2.4,0-4.3,1.9-4.3,4.3v46.6c0,7.9,5.4,16,13,16.2c2.5,0.1,7.9,0.1,11.6,0
	c2.2,0,3.9,1.7,4,3.9l0.2,59.2c0,2.3,1.9,4.1,4.2,4.1h39.9c2.4,0,4.4-1.9,4.3-4.3c0-4.8,0.1-28,0.1-59c0-2.2,1.8-3.9,3.9-3.9
	c3.7,0,9,0,11.6,0c7.6,0,13-8.3,13-16.2v-46.8C1183.3,604.3,1181.5,602.4,1179.2,602.4z"/>
<path id="x" class="st0" d="M1030.8,502.3v-46.8c0-2.3-1.9-4.2-4.2-4.2h-15.4c-2.3,0-4.1,1.9-4.1,4.1v35c0,9.3-7.3,17.3-16.5,17.4
	c-9.4,0.1-17.1-7.4-17.1-16.8v-35.6c0-2.3-1.9-4.2-4.2-4.2h-6.1h-33.9c-2.4,0-4.3,1.9-4.3,4.3v46.6c0,7.9,5.5,14.5,13,16.2l0,0
	c-7.4,1.7-13,8.3-13,16.2v46.8c0,2.4,1.9,4.3,4.3,4.3h39.9l0,0h0c2.3,0,4.2-1.9,4.2-4.2v-35h0c0.2-9.1,7.6-16.5,16.8-16.5
	c9.2,0,16.6,7.3,16.8,16.5h0v35.1c0,2.3,1.9,4.1,4.1,4.1h0.3l0,0h14.1l0,0h0.9c2.3,0,4.2-1.9,4.2-4.2v-0.1v-46.7
	c0-7.9-5.5-14.6-13-16.2l0,0C1025.2,516.8,1030.8,510.2,1030.8,502.3z"/>
<path id="w" class="st0" d="M903.7,737.3L903.7,737.3l-99.1,0v0c-23.5-0.5-31.4-19.7-31.4-43.4c0,0,0-81.2,0-86.3
	c0-2.7,2.4-4.7,4.7-4.7H792c2.6,0,4.7,2.1,4.7,4.7c0,0,0,71.6,0,87.5c0,11.7,7.3,19.2,16.6,19.2c8.3,0,15.1-5.8,16.4-15.3v-91.9
	c0-2.3,1.9-4.2,4.2-4.2h0.4h39.5h0.4c2.3,0,4.2,1.9,4.2,4.2v91.9c1.3,9.5,8.1,15.3,16.4,15.3c9.3,0,16.6-7.5,16.6-19.2
	c0-15.9,0-87.5,0-87.5c0-2.6,2.1-4.7,4.7-4.7h14.1c2.3,0,4.7,2.1,4.7,4.7c0,5.1,0,86.3,0,86.3C935.1,717.6,927.2,736.8,903.7,737.3z
	"/>
<path id="v" class="st0" d="M799.9,473.7c-2.7,0-0.4,0-8.8,0c-10.5,0-16.3,9.1-16.8,15.8c0,24.3,0,52.8,0,52.8
	c0,23.6-7.9,42.9-31.4,43.4v0h-69.7c-2.3,0-4.2-1.9-4.2-4.2v-126c0-2.3,1.9-4.2,4.2-4.2h39.9c2.4,0,4.4,2,4.4,4.4V544
	c0,11.5,7.4,18.7,16.7,18.7s16.6-7.5,16.6-19.2c0-15.9,0-87.5,0-87.5c0-2.8,2.1-4.7,4.7-4.7h9.8h4.4h3.9h26.4c2.3,0,4.2,1.9,4.2,4.2
	v13.9C804.2,471.8,802.3,473.7,799.9,473.7z"/>
<path id="u" class="st0" d="M622.9,693.4c0,23.6-7.9,42.9-31.4,43.4v0h-69.7c-2.3,0-4.2-1.9-4.2-4.2v-126c0-2.3,1.9-4.2,4.2-4.2
	h39.9c2.4,0,4.4,2,4.4,4.4v88.3c0,11.5,7.4,18.7,16.7,18.7s16.6-7.5,16.6-19.2c0-15.9,0-87.5,0-87.5c0-2.8,2.1-4.7,4.7-4.7h14.1
	c2.3,0,4.7,2.1,4.7,4.7C622.9,612.2,622.9,693.4,622.9,693.4z"/>
<path id="t" class="st0" d="M481.7,469.5v-13.9c0-2.3-1.9-4.2-4.2-4.2H366.1c-2.3,0-4.2,1.9-4.2,4.2v13.9c0,2.3,1.9,4.2,4.2,4.2
	c4.8,0,8.7,0,14.5,0c9.8,0,16.7,7.7,16.7,16.7l0.2,91.2c0,2.3,1.9,4.1,4.2,4.1h39.9c2.4,0,4.4-1.9,4.3-4.3c0-5.3,0.1-55.6,0.1-91.1
	c0-6.8,5.9-16.7,16.8-16.7c8.4,0,11.9,0,14.6,0C479.8,473.7,481.7,471.8,481.7,469.5z"/>
<path id="s" class="st0" d="M343.3,624.9c9.4,0,17.5,0,24,0c2.5,0,4.5-2.7,4.5-5.2v-13c0-2.3-1.9-4.2-4.2-4.2h-86.1h-0.1
	c-2.3,0-4.2,1.9-4.2,4.2v69.3c0,2.6,2.1,5,4.6,5h18.5c7,0,16.7,6.5,16.7,16.9c0,10.9-10.2,17.2-16.7,17.2c-7.7,0-13,0-18.5,0
	c-2.6,0-4.6,2.1-4.6,4.6v12.9c0,2.3,1.9,4.2,4.2,4.2h0.1h86.1c2.3,0,4.2-1.9,4.2-4.2v-69.3c0-2.5-2-4.8-4.5-4.8h-24
	c-8.8,0-16.7-8.1-16.7-17C326.7,634.5,332.2,624.9,343.3,624.9z"/>
<path id="r" class="st0" d="M222.8,568.4c0-2.5-2.1-4.5-4.6-4.5l-31.5,0c-7.3-0.6-10.4-6.8-10.1-13c0.3-7,3.7-13,10.1-14.2
	c18.6-4.9,32.3-21.8,32.3-42c0-23.6-18.9-42.9-42.4-43.4v0h-16.8h-27.4c-2.3,0-4.2,1.9-4.2,4.2v126c0,2.3,1.9,4.2,4.2,4.2h86.2
	c2.3,0,4.2-1.9,4.2-4.2C222.8,581.5,222.8,573.7,222.8,568.4z M157.7,490.4c0-9.2,7.5-16.7,16.7-16.7s16.7,7.5,16.7,16.7
	c0,9.2-7.5,16.7-16.7,16.7S157.7,499.6,157.7,490.4z"/>
<path id="q" class="st0" d="M123.8,746.2l-24-0.7c-7.5,0-12.7-4.5-15.1-9.8l21.3,0c2.4,0,4.3-2.4,4.3-4.7c0,0,0-38.9,0-39.2
	c0-2.2,0-44.3,0-46.5c0-0.3,0-39.7,0-39.7c0-2.5-1.9-4.3-4.3-4.3l-56.9,0H9.1c-2.3,0-4.2,1.9-4.2,4.2l0,0V731c0,2.3,1.9,4.7,4.2,4.7
	h24.6v28.1l0,0c0,2.3,1.9,4.2,4.2,4.2H38h86.1c2.3,0,4.2-1.9,4.2-4.2v-13C128.3,748.3,126.3,746.2,123.8,746.2z M53.4,697.9v-59.4
	h0.1c1.2-8.1,8.2-14.2,16.6-14.2c8.4,0,15.4,6.2,16.6,14.3c0,0.7,0,1.5-0.1,2.2v55.5c0.1,0.7,0.1,1.4,0.1,2.2
	c-1.2,8.1-8.2,14.3-16.6,14.3C61.5,712.8,54.4,706.3,53.4,697.9C53.4,697.9,53.4,697.9,53.4,697.9L53.4,697.9z"/>
<path id="p" class="st0" d="M1323.6,397.4c0.1-7,3.7-13,10.1-14.2c18.6-4.9,32.3-21.8,32.3-42c0-23.6-18.9-42.9-42.4-43.4v0h-16.8
	h-27.4c-2.3,0-4.2,1.9-4.2,4.2v126c0,2.3,1.9,4.2,4.2,4.2h39.9c2.4,0,4.4-2,4.3-4.4C1323.6,419.2,1323.5,402.7,1323.6,397.4z
	 M1305.5,338.9c-1.1-10.7,7.8-19.6,18.5-18.5c7.9,0.8,14.3,7.2,15.1,15.1c1.1,10.7-7.8,19.6-18.5,18.5
	C1312.7,353.1,1306.3,346.8,1305.5,338.9z"/>
<path class="st0" d="M1136.3,297.9l-56.9,0h-39.9c-2.3,0-4.2,1.9-4.2,4.2v125.5c0,2.3,1.9,4.7,4.2,4.7h39.9h29.8l27.1,0
	c2.4,0,4.3-2.4,4.3-4.7c0,0,0-38.9,0-39.2c0-2.2,0-44.3,0-46.5c0-0.4,0-39.7,0-39.7C1140.6,299.6,1138.7,297.9,1136.3,297.9z
	 M1117.1,395c-1.2,8.1-8.2,14.3-16.6,14.3c-8.6,0-15.7-6.5-16.7-14.8c0,0,0-0.1,0-0.1V335h0.1c1.2-8.1,8.2-14.2,16.6-14.2
	c8.4,0,15.4,6.2,16.6,14.3c0,0.7,0,1.5-0.1,2.2v55.5C1117,393.5,1117.1,394.2,1117.1,395z"/>
<path id="n" class="st0" d="M904.4,341.2c0-23.6-7.9-42.9-31.4-43.4v0h-69.7c-2.3,0-4.2,1.9-4.2,4.2v126c0,2.3,1.9,4.2,4.2,4.2h39.9
	c2.4,0,4.4-2,4.4-4.4v-88.3c0-11.5,7.4-18.7,16.7-18.7c9.3,0,16.6,7.5,16.6,19.2c0,15.9,0,87.5,0,87.5c0,2.8,2.1,4.7,4.7,4.7h14.1
	c2.3,0,4.7-2.1,4.7-4.7C904.4,422.5,904.4,341.3,904.4,341.2z"/>
<path id="m" class="st0" d="M632.4,297.9L632.4,297.9l-99.1,0v0c-23.5,0.5-31.4,19.7-31.4,43.4c0,0,0,81.2,0,86.3
	c0,2.7,2.4,4.7,4.7,4.7h14.1c2.6,0,4.7-2.1,4.7-4.7c0,0,0-71.6,0-87.5c0-11.7,7.3-19.2,16.6-19.2c8.3,0,15.1,5.8,16.4,15.3V428
	c0,2.3,1.9,4.2,4.2,4.2h0.4h39.5h0.4c2.3,0,4.2-1.9,4.2-4.2v-91.9c1.3-9.5,8.1-15.3,16.4-15.3c9.3,0,16.6,7.5,16.6,19.2
	c0,15.9,0,87.5,0,87.5c0,2.6,2.1,4.7,4.7,4.7H659c2.3,0,4.7-2.1,4.7-4.7c0-5.1,0-86.3,0-86.3C663.7,317.6,655.9,298.4,632.4,297.9z"
	/>
<path id="l" class="st0" d="M299.3,302c0-2.3-1.9-4.2-4.2-4.2h-40.9h-0.1c-2.3,0-4.2,1.9-4.2,4.2l0,0v126l0,0c0,2.3,1.9,4.2,4.2,4.2
	h0.1h86.1c2.3,0,4.2-1.9,4.2-4.2v-13c0-2.5-2-4.5-4.5-4.5l-24-0.7c-10.7,0-16.7-9.1-16.7-16.7c0-10.8-0.2-45.4-0.2-56.3"/>
<path id="k" class="st0" d="M106.2,348.8V302c0-2.3-1.9-4.2-4.2-4.2H86.7c-2.3,0-4.1,1.9-4.1,4.1v35c0,9.3-7.3,17.3-16.5,17.4
	c-9.4,0.1-17.1-7.4-17.1-16.8V302c0-2.3-1.9-4.2-4.2-4.2h-6.1H4.8c-2.4,0-4.3,1.9-4.3,4.3V428c0,2.4,1.9,4.3,4.3,4.3h39.9l0,0h0
	c2.3,0,4.2-1.9,4.2-4.2v-35h0c0.2-9.1,7.6-16.5,16.8-16.5c9.2,0,16.6,7.3,16.8,16.5h0v35.1c0,2.3,1.9,4.1,4.1,4.1H87l0,0h14.1l0,0
	h0.9c2.3,0,4.2-1.9,4.2-4.2v-0.1v-46.7c0-7.9-5.5-14.6-13-16.2C100.7,363.4,106.2,356.7,106.2,348.8z"/>
<path id="j" class="st0" d="M1283.5,148.3h-35.7h-0.1h-75.6h-10.5c-2.3,0-4.2,1.9-4.2,4.2v13c0,2.5,2,5.1,4.5,5.1c3,0,6.3,0,9.9,0
	c0.1,0,0.2,0,0.3,0c4.7,0,8.6,0,14.3,0c10.5,0.3,16.4,8.6,16.4,16.6c0,10.9-0.2,45.5-0.2,56.3c0,7.5-6,18.3-16.7,18.3
	c0,0-4,0.5-5.5-1.6c-1.4-2-1-3.5-1-7.5c0-6.5,0.1-21.6,0.1-21.6c0-2.5-2.3-4.5-4.8-4.5h-13.1c-2.3,0-4.2,1.9-4.2,4.2v47.5v0.1
	c0,2.3,1.9,4.2,4.2,4.2l0,0h12.9h33.3l0,0h39.9l0,0h0.1c0.9,0,1.7-0.3,2.4-0.7c1.2-0.8,1.9-2.1,1.9-3.6c0-5.3,0.1-55.6,0.1-91.1
	c0-6.8,5.9-16.7,16.8-16.7c8.4,0,11.9,0,14.6,0c2.3,0,4.2-1.9,4.2-4.2v-13.9C1287.7,150.2,1285.8,148.3,1283.5,148.3z"/>
<path id="i" class="st0" d="M1109.9,2.9h-40c-2.3,0-4.2,1.9-4.2,4.2v126c0,2.3,1.9,4.2,4.2,4.2h39.9c2.4,0,4.4-2,4.3-4.4
	c0-7.7,0-104.2,0-125.8C1114.2,4.8,1112.3,2.9,1109.9,2.9z"/>
<path id="h" class="st0" d="M1013.4,148.3H998c-2.3,0-4.1,1.9-4.1,4.1v35c0,9.3-7.3,17.3-16.5,17.4c-9.4,0.1-17.1-7.4-17.1-16.8
	v-35.6c0-2.3-1.9-4.2-4.2-4.2H950h-33.9c-2.4,0-4.3,1.9-4.3,4.3v125.9c0,2.4,1.9,4.3,4.3,4.3H956l0,0h0c2.3,0,4.2-1.9,4.2-4.2v-35h0
	c0.2-9.1,7.6-16.4,16.8-16.4c9.2,0,16.6,7.3,16.8,16.4h0v35.1c0,2.3,1.9,4.1,4.1,4.1h0.3l0,0h14.1l0,0h0.9c2.3,0,4.2-1.9,4.2-4.2
	v-0.1V152.5C1017.6,150.2,1015.7,148.3,1013.4,148.3z"/>
<path id="g" class="st0" d="M871.3,25.3c9.4,0,17.4,0,23.9,0c2.5,0,4.5-2.6,4.5-5.1v-13c0-2.3-1.9-4.2-4.2-4.2h-86.1h-0.1
	c-2.3,0-4.2,1.9-4.2,4.2v126l0,0c0,2.3,1.9,4.2,4.2,4.2h0.1h73.2h12.9l0,0c2.3,0,4.2-1.9,4.2-4.2v-0.1V85.6c0-2.3-1.9-4.2-4.2-4.2
	h-13.1c-2.5,0-4.8,2-4.8,4.5c0,0,0,15.1,0.1,21.6c0,4,0.4,5.5-1,7.5c-1.4,2.1-5.5,1.6-5.5,1.6c-10.7,0-16.7-10.8-16.7-18.3
	c0-10.8-0.2-45.4-0.2-56.3C854.3,33.8,860.5,25.3,871.3,25.3z"/>
<path id="f" class="st0" d="M776,165.6v-13c0-2.3-1.9-4.2-4.2-4.2h-86.1h-0.1c-2.3,0-4.2,1.9-4.2,4.2l0,0v126l0,0
	c0,2.3,1.9,4.2,4.2,4.2h0.1h40.8c2.3,0,4.2-1.9,4.2-4.2c0,0,0.1-27.4,0.1-34.9c0-10.8,9.7-16.9,16.7-16.9c9.4,0,17.5-0.3,24-0.3
	c2.5,0,4.5-2,4.5-4.5v-12.7c0-2.5-2-4.5-4.5-4.5l-24.2-0.6c-7.7,0-16.7-5.8-16.7-16.7c0-8.2,6.2-16.7,17-16.7c9.4,0,17.4,0,23.9,0
	C774,170.8,776,168.1,776,165.6z"/>
<path id="e" class="st0" d="M625.8,20.2v-13c0-2.3-1.9-4.2-4.2-4.2h-86.1h-0.1c-2.3,0-4.2,1.9-4.2,4.2l0,0v126l0,0
	c0,2.3,1.9,4.2,4.2,4.2h0.1h86.1c2.3,0,4.2-1.9,4.2-4.2v-13c0-2.5-2-4.5-4.5-4.5l-24-0.7c-10.7,0-16.7-9.1-16.7-16.7
	c0-10.8,9.7-16.9,16.7-16.9c9.4,0,17.5-0.3,24-0.3c2.5,0,4.5-2,4.5-4.5V63.8c0-2.5-2-4.5-4.5-4.5l-24.2-0.6
	c-7.7,0-16.7-5.8-16.7-16.7c0-8.2,6.2-16.7,17-16.7c9.4,0,17.4,0,23.9,0C623.8,25.3,625.8,22.7,625.8,20.2z"/>
<path id="d" class="st0" d="M492.4,191.7c0-23.6-7.9-42.9-31.4-43.4v0h-29.8h-39.9l0,0c-2.3,0-4.2,1.9-4.2,4.2l0,0v126l0,0
	c0,2.3,1.9,4.2,4.2,4.2l0,0h39.9H461v0c23.5-0.5,31.4-19.7,31.4-43.4c0,0,0-0.2,0-0.6c0-2.2,0-44.3,0-46.5
	C492.4,191.9,492.4,191.7,492.4,191.7z M468.9,245.5c-1.2,8.1-8.2,14.3-16.6,14.3c-8.6,0-15.7-6.5-16.7-14.8c0,0,0-0.1,0-0.1l0,0
	v-59.4h0.1c1.2-8.1,8.2-14.2,16.6-14.2c8.4,0,15.4,6.2,16.6,14.3c0,0.7,0,1.5-0.1,2.2v55.5C468.9,244,468.9,244.7,468.9,245.5z"/>
<path id="c_00000093164200397619702300000010092799558112969088_" class="st0" d="M352.9,19.7v-13c0-2.3-1.9-4.2-4.2-4.2h-86.1h-0.1
	c-2.3,0-4.2,1.9-4.2,4.2l0,0v126l0,0c0,2.3,1.9,4.2,4.2,4.2h0.1h86.1c2.3,0,4.2-1.9,4.2-4.2v-13c0-2.5-2-4.5-4.5-4.5l-24-0.7
	c-10.7,0-16.7-9.1-16.7-16.7c0-10.8-0.2-45.4-0.2-56.3c0-8.2,6.2-16.7,17-16.7c9.4,0,17.4,0,23.9,0
	C350.9,24.9,352.9,22.2,352.9,19.7z"/>
<path id="b" class="st0" d="M224.7,191.7c0-23.6-7.9-42.9-31.4-43.4v0h-29.8h-39.9l0,0c-2.3,0-4.2,1.9-4.2,4.2l0,0v126l0,0
	c0,2.3,1.9,4.2,4.2,4.2l0,0h39.9h29.8v0c23.5-0.5,31.4-19.7,31.4-43.4c0,0,0-0.2,0-0.6c0-2.2,0-44.3,0-46.5
	C224.7,191.9,224.7,191.7,224.7,191.7z M184.6,171.3c8.4,0,15.4,6.2,16.6,14.3c-0.1,11.5-7.4,18.9-16.6,18.9
	c-9.2,0-16.5-7.1-16.7-18.4C168.9,177.8,176,171.3,184.6,171.3z M184.6,259.8c-8.6,0-15.7-6.5-16.7-14.8
	c0.1-11.3,7.5-18.4,16.7-18.4c9.2,0,16.5,7.4,16.6,18.9C200,253.5,193,259.8,184.6,259.8z"/>
<path id="a" class="st0" d="M104.7,46.4c0-23.6-7.9-42.9-31.4-43.4v0H3.6c-2.3,0-4.2,1.9-4.2,4.2v126c0,2.3,1.9,4.2,4.2,4.2h39.9
	c2.4,0,4.4-2,4.4-4.4V99.9c0-11.5,7.4-18.7,16.7-18.7s16.6,7.5,16.6,19.2c0,15.9,0,32.3,0,32.3c0,2.6,2.1,4.7,4.7,4.7H100
	c2.3,0,4.7-2.1,4.7-4.7C104.7,127.6,104.7,46.4,104.7,46.4z M64.6,25.9c9.3,0,16.8,7.5,16.8,16.8s-7.5,16.8-16.8,16.8
	S47.8,52,47.8,42.7S55.3,25.9,64.6,25.9z"/>
</svg>
