<?xml version="1.0" encoding="utf-8"?>
<!-- Generator: Adobe Illustrator 27.1.1, SVG Export Plug-In . SVG Version: 6.00 Build 0)  -->
<svg version="1.1" id="alfabeto" xmlns="http://www.w3.org/2000/svg" xmlns:xlink="http://www.w3.org/1999/xlink" x="0px" y="0px"
	 viewBox="0 0 1366 768" style="enable-background:new 0 0 1366 768;" xml:space="preserve">
<style type="text/css">
	.st0{fill:#F8C9CB;}
</style>
<path id="z" class="st0" d="M1252.33,545.01h-34.63c-1.95,0-3.18-2.1-2.22-3.8c14.4-25.35,36.26-63.81,42.76-75.24
	c0.79-1.39,0.41-5.71,0.41-6.58v-9.05c0-3.49-2.83-6.32-6.32-6.32h-82c-3.49,0-6.32,2.83-6.32,6.32v9.25c0,2.25,1.82,4.3,4.07,4.3
	c0,0,17.65-0.07,37.02-0.15c1.96-0.01,3.2,2.1,2.23,3.81l-42.72,75.2c-0.71,1.25-0.6,5.23-0.6,6.05v11.79c0,2.25,1.82,4.3,4.07,4.3
	c0,0,83.68-0.33,86.43-0.33c2.3,0,4.15-1.86,4.15-4.16v-9.05C1258.65,547.84,1255.82,545.01,1252.33,545.01z"/>
<path id="y" class="st0" d="M1139.31,579.72h-13.78c-2.05,0-3.71,1.66-3.71,3.71v31.43c0,8.33-6.51,15.49-14.84,15.62
	c-8.44,0.13-15.32-6.67-15.32-15.08v-31.91c0-2.09-1.69-3.78-3.78-3.78h-5.44h-30.38c-2.11,0-3.82,1.71-3.82,3.82v41.82
	c0,7.11,4.81,14.38,11.63,14.57c2.27,0.06,7.07,0.05,10.39,0.04c1.96-0.01,3.54,1.57,3.55,3.53l0.15,53.14c0,2.05,1.69,3.7,3.78,3.7
	h35.83c2.16,0,3.91-1.72,3.9-3.84c-0.02-4.33,0.05-25.11,0.06-52.96c0-1.95,1.58-3.53,3.53-3.53c3.31,0.01,8.08,0.02,10.38,0.01
	c6.83-0.02,11.63-7.45,11.63-14.57v-41.96C1143.04,581.41,1141.37,579.72,1139.31,579.72z"/>
<path id="x" class="st0" d="M1018.71,489.88v-41.96c0-2.08-1.67-3.78-3.74-3.78h-13.78c-2.05,0-3.71,1.66-3.71,3.71v31.43
	c0,8.33-6.51,15.49-14.84,15.62c-8.44,0.13-15.32-6.67-15.32-15.08v-31.91c0-2.09-1.69-3.78-3.78-3.78h-5.44h-30.38
	c-2.11,0-3.82,1.71-3.82,3.82v41.82c0,7.11,4.97,13.05,11.63,14.57l0,0c-6.66,1.51-11.63,7.45-11.63,14.57v42
	c0,2.11,1.71,3.82,3.82,3.82h35.78l0,0h0.02c2.1,0,3.81-1.7,3.81-3.81v-31.43h0.02c0.17-8.18,6.84-14.76,15.07-14.76
	c8.22,0,14.89,6.58,15.07,14.76h0.02v31.52c0,2.05,1.66,3.72,3.72,3.72h0.29l0,0h12.68l0,0h0.8c2.06,0,3.74-1.69,3.74-3.77v-0.07
	V519c0-7.11-4.97-13.06-11.63-14.57l0,0C1013.74,502.93,1018.71,496.99,1018.71,489.88z"/>
<path id="w" class="st0" d="M889.42,700.79v0.02h-88.91v-0.02c-21.1-0.48-28.16-17.72-28.16-38.93c0-0.01,0.01-72.88,0.01-77.42
	c0-2.38,2.16-4.23,4.2-4.23h12.68c2.31,0,4.18,1.87,4.18,4.18c0,0,0,64.25,0,78.49c0,10.5,6.58,17.25,14.91,17.25
	c7.46,0,13.55-5.19,14.75-13.69v-82.46c0-2.08,1.69-3.78,3.78-3.78h0.39h35.43h0.39c2.08,0,3.78,1.69,3.78,3.78v82.46
	c1.2,8.5,7.29,13.69,14.75,13.69c8.33,0,14.91-6.75,14.91-17.25c0-14.24,0-78.49,0-78.49c0-2.31,1.87-4.18,4.18-4.18h12.68
	c2.04,0,4.2,1.85,4.2,4.23c0,4.54,0.01,77.4,0.01,77.42C917.58,683.08,910.52,700.32,889.42,700.79z"/>
<path id="v" class="st0" d="M795.43,464.25c-2.39,0-0.36,0-7.91,0c-9.42,0-14.64,8.13-15.04,14.18c0,21.79,0,47.35,0,47.36
	c0,21.21-7.06,38.45-28.16,38.93v0.02h-62.56c-2.09,0-3.78-1.69-3.78-3.78V447.92c0-2.08,1.69-3.78,3.78-3.78h35.82
	c2.17,0,3.93,1.76,3.93,3.93v79.2c0,10.33,6.65,16.79,14.98,16.79c8.33,0,14.91-6.75,14.91-17.25c0-14.24,0-78.49,0-78.49
	c0-2.51,1.87-4.18,4.18-4.18h8.75h3.93h3.49h23.67c2.1,0,3.8,1.7,3.8,3.8v12.51C799.23,462.55,797.53,464.25,795.43,464.25z"/>
<path id="u" class="st0" d="M609.65,661.38c0,21.21-7.06,38.45-28.16,38.93v0.02h-62.56c-2.08,0-3.78-1.69-3.78-3.77V583.51
	c0-2.08,1.69-3.78,3.78-3.78h35.82c2.17,0,3.93,1.76,3.93,3.93v79.2c0,10.33,6.65,16.79,14.98,16.79c8.33,0,14.91-6.75,14.91-17.25
	c0-14.24,0-78.49,0-78.49c0-2.51,1.87-4.18,4.18-4.18h12.68c2.04,0,4.2,1.85,4.2,4.23C609.64,588.5,609.65,661.37,609.65,661.38z"/>
<path id="t" class="st0" d="M506.32,460.44v-12.51c0-2.1-1.7-3.8-3.8-3.8h-99.95c-2.1,0-3.8,1.7-3.8,3.8v12.51
	c0,2.1,1.7,3.8,3.8,3.8c4.29,0,7.82,0,13.04,0c8.81,0,15.01,6.88,15.01,14.94l0.17,81.85c0,2.05,1.69,3.7,3.78,3.7h35.83
	c2.16,0,3.91-1.72,3.9-3.84c-0.03-4.73,0.06-49.85,0.06-81.71c0-6.1,5.26-14.94,15.08-14.94c7.55,0,10.69,0,13.08,0
	C504.62,464.24,506.32,462.53,506.32,460.44z"/>
<path id="s" class="st0" d="M358.84,599.86c8.39,0,15.72,0,21.55,0c2.25,0,4.07-2.39,4.07-4.64v-11.69c0-2.08-1.69-3.77-3.77-3.77
	h-77.27h-0.07c-2.08,0-3.77,1.69-3.77,3.77v62.14c0,2.3,1.86,4.51,4.16,4.51h16.61c6.28,0,14.96,5.81,14.96,15.2
	c0,9.81-9.15,15.44-14.96,15.44c-6.9,0-11.69,0-16.62,0c-2.3,0-4.15,1.86-4.15,4.16v11.6c0,2.08,1.69,3.77,3.77,3.77h0.07h77.27
	c2.08,0,3.78-1.69,3.78-3.78v-62.22c0-2.25-1.82-4.3-4.07-4.3h-21.54c-7.91,0-14.95-7.25-14.95-15.28
	C343.89,608.49,348.85,599.86,358.84,599.86z"/>
<path id="r" class="st0" d="M250.66,549.24c-0.01-2.26-1.85-4.08-4.11-4.08l-28.25-0.03c-6.53-0.52-9.35-6.11-9.08-11.69
	c0.3-6.31,3.33-11.65,9.08-12.71c16.68-4.41,28.97-19.59,28.97-37.66c0-21.21-16.96-38.45-38.06-38.93v-0.02h-15.07h-24.58
	c-2.08,0-3.78,1.69-3.78,3.78v113.05c0,2.08,1.69,3.78,3.78,3.78h77.33c2.08,0,3.78-1.69,3.78-3.78
	C250.66,560.95,250.69,553.98,250.66,549.24z M192.27,479.18c0-8.25,6.69-14.94,14.94-14.94s14.94,6.69,14.94,14.94
	s-6.69,14.94-14.94,14.94S192.27,487.43,192.27,479.18z"/>
<path id="q" class="st0" d="M143.81,708.76l-21.54-0.62c-6.76,0-11.4-4.06-13.57-8.82l19.07-0.02c2.16,0,3.82-2.11,3.82-4.24
	c0-0.01,0-34.87,0-35.19c0-1.98,0-39.73,0-41.71c0-0.31,0-35.58,0-35.59c0-2.28-1.66-3.83-3.84-3.83l-51.06-0.02H40.88
	c-2.08,0-3.78,1.69-3.78,3.78l0,0v112.57c0,2.08,1.69,4.26,3.78,4.26h22.11v25.19l0,0c0,2.08,1.69,3.78,3.78,3.78h0.07h77.27
	c2.08,0,3.78-1.69,3.78-3.78v-11.69C147.89,710.59,146.06,708.76,143.81,708.76z M80.65,665.36V612.1h0.09
	c1.12-7.23,7.34-12.77,14.88-12.77c7.56,0,13.81,5.57,14.9,12.84c-0.01,0.66-0.04,1.31-0.1,1.94v49.84c0.06,0.63,0.1,1.28,0.1,1.94
	c-1.09,7.26-7.33,12.84-14.9,12.84c-7.72,0-14.08-5.81-14.97-13.29C80.65,665.41,80.65,665.39,80.65,665.36L80.65,665.36z"/>
<path id="p" class="st0" d="M1305.9,395.75c0.11-6.32,3.33-11.65,9.08-12.71c16.68-4.41,28.97-19.59,28.97-37.66
	c0-21.21-16.96-38.45-38.06-38.93v-0.02h-15.07h-24.58c-2.08,0-3.78,1.69-3.78,3.78v113.05c0,2.08,1.69,3.78,3.78,3.78h35.83
	c2.16,0,3.91-1.75,3.9-3.92C1305.93,415.32,1305.82,400.56,1305.9,395.75z M1289.7,343.24c-0.95-9.58,7.04-17.57,16.62-16.62
	c7.09,0.7,12.83,6.44,13.53,13.53c0.95,9.58-7.04,17.57-16.62,16.62C1296.14,356.07,1290.4,350.34,1289.7,343.24z"/>
<path id="o" class="st0" d="M1121.74,310.29c0-2.28-1.66-3.83-3.84-3.83l-51.06-0.02h-35.82l0,0c-2.08,0-3.78,1.69-3.78,3.78l0,0
	v112.57c0,2.08,1.69,4.26,3.78,4.26l0,0h35.82h26.74l24.34-0.02c2.16,0,3.82-2.11,3.82-4.24c0-0.01,0-34.87,0-35.19
	c0-1.98,0-39.73,0-41.71C1121.74,345.57,1121.74,310.3,1121.74,310.29z M1100.65,393.6c-1.09,7.26-7.33,12.84-14.9,12.84
	c-7.72,0-14.08-5.81-14.97-13.29c0-0.02,0-0.05,0-0.07l0,0v-53.26h0.09c1.12-7.23,7.34-12.77,14.88-12.77
	c7.56,0,13.81,5.57,14.9,12.84c-0.01,0.66-0.04,1.31-0.1,1.94v49.84C1100.61,392.29,1100.64,392.94,1100.65,393.6z"/>
<path id="n" class="st0" d="M887.41,345.39c0-21.21-7.06-38.45-28.16-38.93v-0.02h-62.56c-2.08,0-3.78,1.69-3.78,3.78v113.05
	c0,2.08,1.69,3.78,3.78,3.78h35.82c2.17,0,3.93-1.76,3.93-3.93v-79.2c0-10.33,6.65-16.79,14.98-16.79c8.33,0,14.91,6.75,14.91,17.25
	c0,14.24,0,78.49,0,78.49c0,2.51,1.87,4.18,4.18,4.18h12.68c2.04,0,4.2-1.85,4.2-4.23C887.4,418.27,887.41,345.4,887.41,345.39z"/>
<path id="m" class="st0" d="M643.28,306.46v-0.02h-88.91v0.02c-21.1,0.48-28.16,17.72-28.16,38.93c0,0.01,0.01,72.88,0.01,77.42
	c0,2.38,2.16,4.23,4.2,4.23h12.68c2.31,0,4.18-1.87,4.18-4.18c0,0,0-64.25,0-78.49c0-10.5,6.58-17.25,14.91-17.25
	c7.46,0,13.55,5.19,14.75,13.69v82.46c0,2.08,1.69,3.78,3.78,3.78h0.39h35.43h0.39c2.08,0,3.78-1.69,3.78-3.78v-82.46
	c1.2-8.5,7.29-13.69,14.75-13.69c8.33,0,14.91,6.75,14.91,17.25c0,14.24,0,78.49,0,78.49c0,2.31,1.87,4.18,4.18,4.18h12.68
	c2.04,0,4.2-1.85,4.2-4.23c0-4.54,0.01-77.4,0.01-77.42C671.44,324.18,664.38,306.94,643.28,306.46z"/>
<path id="l" class="st0" d="M329.21,310.21c0-2.08-1.69-3.77-3.78-3.77h-36.71h-0.07c-2.08,0-3.78,1.69-3.78,3.77l0,0v113.05l0,0
	c0,2.08,1.69,3.78,3.78,3.78h0.07h77.27c2.08,0,3.78-1.69,3.78-3.78v-11.69c0-2.25-1.82-4.07-4.07-4.07l-21.54-0.62
	c-9.61,0-14.96-8.19-14.96-14.94c0-9.69-0.18-40.73-0.18-50.48"/>
<path id="k" class="st0" d="M128.45,352.17v-41.96c0-2.08-1.67-3.78-3.74-3.78h-13.78c-2.05,0-3.71,1.66-3.71,3.71v31.43
	c0,8.33-6.51,15.49-14.84,15.62c-8.44,0.13-15.32-6.67-15.32-15.08V310.2c0-2.09-1.69-3.78-3.78-3.78h-5.44H37.45
	c-2.11,0-3.82,1.71-3.82,3.82V423.2c0,2.11,1.71,3.82,3.82,3.82h35.78l0,0h0.02c2.1,0,3.81-1.7,3.81-3.81v-31.43h0.02
	c0.17-8.18,6.84-14.76,15.07-14.76c8.22,0,14.89,6.58,15.07,14.76h0.02v31.52c0,2.05,1.66,3.72,3.72,3.72h0.29l0,0h12.68l0,0h0.8
	c2.06,0,3.74-1.69,3.74-3.77v-0.07v-41.89c0-7.11-4.97-13.06-11.63-14.57C123.47,365.23,128.45,359.29,128.45,352.17z"/>
<path id="j" class="st0" d="M1254.42,172.28h-32.06h-0.07h-67.81h-9.46c-2.08,0-3.78,1.69-3.78,3.78v11.69
	c0,2.25,1.82,4.62,4.07,4.62c2.68,0,5.66,0,8.89,0c0.09,0.01,0.18,0.03,0.27,0.03c4.22,0,7.71,0,12.8,0
	c9.38,0.29,14.72,7.72,14.72,14.91c0,9.75-0.18,40.79-0.18,50.48c0,6.75-5.36,16.44-14.96,16.44c0,0-3.63,0.46-4.91-1.41
	c-1.22-1.78-0.91-3.15-0.89-6.75c0.03-5.81,0.05-19.37,0.05-19.37c0-2.25-2.05-4.07-4.3-4.07h-11.79c-2.08,0-3.78,1.69-3.78,3.78
	v42.63v0.07c0,2.08,1.69,3.77,3.78,3.77l0,0h11.6h29.85l0,0h35.83l0,0h0.06c0.79,0,1.52-0.24,2.12-0.66
	c1.04-0.69,1.72-1.86,1.71-3.19c-0.03-4.73,0.06-49.85,0.06-81.71c0-6.1,5.26-14.94,15.08-14.94c7.55,0,10.69,0,13.08,0
	c2.1,0,3.8-1.7,3.8-3.8v-12.51C1258.21,173.98,1256.51,172.28,1254.42,172.28z"/>
<path id="i" class="st0" d="M1092.43,39.15h-35.91c-2.08,0-3.78,1.69-3.78,3.78v113.05c0,2.08,1.69,3.78,3.78,3.78h35.83
	c2.16,0,3.91-1.75,3.9-3.92c-0.04-6.93-0.01-93.52-0.01-112.87C1096.25,40.86,1094.54,39.15,1092.43,39.15z"/>
<path id="h" class="st0" d="M1004.03,172.28h-13.78c-2.05,0-3.71,1.66-3.71,3.71v31.43c0,8.33-6.51,15.49-14.84,15.62
	c-8.44,0.13-15.32-6.67-15.32-15.08v-31.91c0-2.09-1.69-3.78-3.78-3.78h-5.44h-30.39c-2.11,0-3.82,1.71-3.82,3.82v112.96
	c0,2.11,1.71,3.82,3.82,3.82h35.78l0,0h0.02c2.1,0,3.81-1.7,3.81-3.81v-31.43h0.02c0.17-8.18,6.84-14.76,15.07-14.76
	c8.22,0,14.89,6.58,15.07,14.76h0.02v31.52c0,2.05,1.66,3.72,3.72,3.72h0.29l0,0h12.68l0,0h0.8c2.06,0,3.74-1.69,3.74-3.77v-0.07
	V176.05C1007.77,173.97,1006.09,172.28,1004.03,172.28z"/>
<path id="g" class="st0" d="M852.33,59.23c8.39,0,15.58,0,21.41,0c2.25,0,4.07-2.37,4.07-4.62V42.92c0-2.08-1.69-3.78-3.78-3.78
	h-77.27h-0.07c-2.08,0-3.78,1.69-3.78,3.78v113.05l0,0c0,2.08,1.69,3.78,3.78,3.78h0.07h65.67h11.6l0,0c2.08,0,3.77-1.69,3.77-3.77
	v-0.07v-42.63c0-2.08-1.69-3.78-3.78-3.78h-11.79c-2.25,0-4.3,1.82-4.3,4.07c0,0,0.02,13.56,0.05,19.37
	c0.02,3.6,0.34,4.97-0.89,6.75c-1.28,1.87-4.91,1.41-4.91,1.41c-9.61,0-14.96-9.69-14.96-16.44c0-9.69-0.18-40.73-0.18-50.48
	C837.06,66.83,842.6,59.23,852.33,59.23z"/>
<path id="f" class="st0" d="M767.68,187.8v-11.69c0-2.08-1.69-3.78-3.78-3.78h-77.27h-0.07c-2.08,0-3.78,1.69-3.78,3.78l0,0v113.05
	l0,0c0,2.08,1.69,3.77,3.78,3.77h0.07h36.57c2.08,0,3.78-1.69,3.78-3.77c0,0,0.12-24.57,0.12-31.32c0-9.69,8.68-15.14,14.96-15.14
	c8.39,0,15.72-0.29,21.54-0.29c2.25,0,4.07-1.82,4.07-4.07v-11.39c0-2.25-1.82-4.07-4.07-4.07l-21.73-0.57
	c-6.87,0-14.94-5.19-14.94-14.94c0-7.34,5.54-14.94,15.27-14.94c8.39,0,15.58,0,21.41,0C765.86,192.42,767.68,190.05,767.68,187.8z"
	/>
<path id="e" class="st0" d="M632.06,54.61V42.92c0-2.08-1.69-3.78-3.78-3.78h-77.27h-0.07c-2.08,0-3.78,1.69-3.78,3.78l0,0v113.05
	l0,0c0,2.08,1.69,3.78,3.78,3.78h0.07h77.27c2.08,0,3.78-1.69,3.78-3.78v-11.69c0-2.25-1.82-4.07-4.07-4.07l-21.54-0.62
	c-9.61,0-14.96-8.19-14.96-14.94c0-9.69,8.68-15.14,14.96-15.14c8.39,0,15.72-0.29,21.54-0.29c2.25,0,4.07-1.82,4.07-4.07V93.76
	c0-2.25-1.82-4.07-4.07-4.07l-21.73-0.57c-6.87,0-14.94-5.19-14.94-14.94c0-7.34,5.54-14.94,15.27-14.94c8.39,0,15.58,0,21.41,0
	C630.24,59.23,632.06,56.86,632.06,54.61z"/>
<path id="d" class="st0" d="M499.79,211.23c0-21.21-7.06-38.45-28.16-38.93v-0.02h-26.74h-35.82l0,0c-2.08,0-3.78,1.69-3.78,3.78
	l0,0v113.05l0,0c0,2.08,1.69,3.77,3.78,3.77l0,0h35.82h26.74v-0.02c21.1-0.48,28.16-17.72,28.16-38.93c0-0.01,0-0.18,0-0.5
	c0-1.98,0-39.73,0-41.71C499.79,211.41,499.79,211.24,499.79,211.23z M478.71,259.44c-1.09,7.26-7.33,12.84-14.9,12.84
	c-7.72,0-14.08-5.81-14.97-13.29c0-0.02,0-0.05,0-0.07l0,0v-53.26h0.09c1.12-7.23,7.34-12.77,14.88-12.77
	c7.56,0,13.81,5.57,14.9,12.84c-0.01,0.66-0.04,1.31-0.1,1.94v49.84C478.66,258.13,478.7,258.78,478.71,259.44z"/>
<path id="c_00000093164200397619702300000010092799558112969088_" class="st0" d="M367.46,54.23V42.54c0-2.08-1.69-3.78-3.78-3.78
	h-77.27h-0.07c-2.08,0-3.78,1.69-3.78,3.78l0,0v113.05l0,0c0,2.08,1.69,3.78,3.78,3.78h0.07h77.27c2.08,0,3.77-1.69,3.77-3.78V143.9
	c0-2.25-1.82-4.07-4.07-4.07l-21.54-0.62c-9.61,0-14.96-8.19-14.96-14.94c0-9.69-0.18-40.73-0.18-50.48
	c0-7.34,5.54-14.94,15.27-14.94c8.39,0,15.58,0,21.41,0C365.64,58.84,367.46,56.47,367.46,54.23z"/>
<path id="b" class="st0" d="M252.4,211.23c0-21.21-7.06-38.45-28.16-38.93v-0.02H197.5h-35.82l0,0c-2.08,0-3.78,1.69-3.78,3.78l0,0
	v113.05l0,0c0,2.08,1.69,3.77,3.78,3.77l0,0h35.82h26.74v-0.02c21.1-0.48,28.16-17.72,28.16-38.93c0-0.01,0-0.18,0-0.5
	c0-1.98,0-39.73,0-41.71C252.4,211.41,252.4,211.24,252.4,211.23z M216.41,192.88c7.56,0,13.81,5.57,14.9,12.84
	c-0.13,10.32-6.65,16.95-14.9,16.95s-14.84-6.34-14.97-16.49C202.33,198.69,208.69,192.88,216.41,192.88z M216.41,272.28
	c-7.72,0-14.08-5.81-14.97-13.29c0.13-10.15,6.72-16.49,14.97-16.49s14.77,6.62,14.9,16.95
	C230.22,266.7,223.98,272.28,216.41,272.28z"/>
<path id="a" class="st0" d="M116.58,78.1c0-21.21-7.06-38.45-28.16-38.93v-0.02H25.86c-2.08,0-3.78,1.69-3.78,3.78v113.05
	c0,2.08,1.69,3.78,3.78,3.78h35.82c2.17,0,3.93-1.76,3.93-3.93v-29.66c0-10.33,6.65-16.79,14.98-16.79s14.91,6.75,14.91,17.25
	c0,14.24,0,28.95,0,28.95c0,2.31,1.87,4.18,4.18,4.18h12.68c2.04,0,4.2-1.85,4.2-4.23C116.57,150.98,116.58,78.11,116.58,78.1z
	 M80.59,59.75c8.33,0,15.08,6.75,15.08,15.08s-6.75,15.08-15.08,15.08s-15.08-6.75-15.08-15.08S72.26,59.75,80.59,59.75z"/>
</svg>
