<?xml version="1.0" encoding="utf-8"?>
<!-- Generator: Adobe Illustrator 27.1.1, SVG Export Plug-In . SVG Version: 6.00 Build 0)  -->
<svg version="1.1" id="Capa_1" xmlns="http://www.w3.org/2000/svg" xmlns:xlink="http://www.w3.org/1999/xlink" x="0px" y="0px"
	 viewBox="0 0 1018 932" style="enable-background:new 0 0 1018 932;" xml:space="preserve">
<style type="text/css">
	.st0{fill:#C93E40;stroke:#000000;stroke-miterlimit:10;}
	.st1{fill:#FFFFFF;}
</style>
<rect class="st0" width="1018" height="932"/>
<path class="st1" d="M871.54,427.54h-44.18c-2.2,0-3.98,1.76-3.98,3.94v14.51c0,2.16,1.75,3.91,3.91,3.91l33.1,0
	c8.77,0,16.31,6.86,16.45,15.63c0.14,8.89-7.02,16.14-15.88,16.14h-33.6c-2.2,0-3.98,1.78-3.98,3.98v5.73v31.99
	c0,2.22,1.8,4.02,4.02,4.02h44.04c7.49,0,13.75-5.24,15.34-12.24c0,0,0,0,0,0c1.59,7.01,7.85,12.24,15.34,12.24h44.23
	c2.22,0,4.02-1.8,4.02-4.02v-37.67c0,0,0,0,0,0v-0.02c0-2.21-1.79-4.01-4.01-4.01h-33.09v-0.02c-8.61-0.18-15.54-7.21-15.54-15.87
	c0-8.66,6.93-15.68,15.54-15.86v-0.02h33.19c2.16,0,3.91-1.75,3.91-3.91v-0.31c0,0,0,0,0,0v-13.36c0,0,0,0,0,0v-0.84
	c0-2.17-1.78-3.94-3.97-3.94h-0.08h-44.1c-7.49,0-13.75,5.24-15.34,12.25c0,0,0,0,0,0C885.29,432.78,879.03,427.54,871.54,427.54z"
	/>
<path class="st1" d="M929.97,141.92v36.79c0,2.08-2.23,3.38-4.04,2.36c-26.93-15.29-67.78-38.52-79.93-45.43
	c-1.47-0.84-6.06-0.43-6.99-0.43h-9.62c-3.71,0-6.72,3.01-6.72,6.72v87.11c0,3.71,3.01,6.72,6.72,6.72h9.82
	c2.39,0,4.56-1.94,4.56-4.33c0,0-0.08-18.75-0.16-39.32c-0.01-2.08,2.24-3.4,4.04-2.37l79.89,45.38c1.33,0.76,5.56,0.64,6.42,0.64
	h12.53c2.39,0,4.56-1.94,4.56-4.33c0,0-0.35-88.89-0.35-91.81c0-2.44-1.98-4.41-4.42-4.41h-9.62
	C932.98,135.2,929.97,138.21,929.97,141.92z"/>
<g>
	<path class="st1" d="M85.46,172.36H73.4c-2.15,0-3.9,1.74-3.9,3.9v79.75v0.07c0,2.15,1.74,3.9,3.9,3.9l0,0h116.68h0
		c2.15,0,3.9-1.74,3.9-3.9v-0.07v-79.75c0-2.15-1.74-3.9-3.9-3.9h-12.06c-2.32,0-4.2,1.88-4.2,4.2l-0.64,22.23
		c0,9.91-8.46,15.44-15.42,15.44c-10,0-15.63-8.96-15.63-15.44c0-8.66-0.3-16.23-0.3-22.24c0-2.32-1.88-4.2-4.2-4.2h-11.75
		c-2.32,0-4.2,1.88-4.2,4.2l-0.59,22.43c0,7.09-5.36,15.42-15.42,15.42c-7.57,0-15.42-5.72-15.42-15.76c0-8.66,0-16.09,0-22.1
		C90.23,174.24,87.78,172.36,85.46,172.36z"/>
	<path class="st1" d="M85.46,442.39H73.4c-2.15,0-3.9,1.74-3.9,3.9v79.75v0.07c0,2.15,1.74,3.9,3.9,3.9l0,0h116.68h0
		c2.15,0,3.9-1.74,3.9-3.9v-0.07v-79.75c0-2.15-1.74-3.9-3.9-3.9h-12.06c-2.32,0-4.2,1.88-4.2,4.2l-0.64,22.23
		c0,9.91-8.46,15.44-15.42,15.44c-10,0-42.04,0.18-52.1,0.18c-7.57,0-15.42-5.72-15.42-15.76c0-8.66,0-16.09,0-22.1
		C90.23,444.26,87.78,442.39,85.46,442.39z"/>
	<path class="st1" d="M85.46,47.49H73.4c-2.15,0-3.9,1.74-3.9,3.9v79.75v0.07c0,2.15,1.74,3.9,3.9,3.9l0,0h116.68h0
		c2.15,0,3.9-1.74,3.9-3.9v-0.07V93.38c0-2.15-1.74-3.9-3.9-3.9c0,0-25.36-0.12-32.33-0.12c-10,0-15.63-8.96-15.63-15.44
		c0-8.66-0.3-16.23-0.3-22.24c0-2.32-1.88-4.2-4.2-4.2h-11.75c-2.32,0-4.2,1.88-4.2,4.2l-0.59,22.43c0,7.09-5.36,15.42-15.42,15.42
		c-7.57,0-15.42-5.72-15.42-15.76c0-8.66,0-16.09,0-22.1C90.23,49.36,87.78,47.49,85.46,47.49z"/>
	<path class="st1" d="M109.71,710.19c-21.89,0-39.69,7.29-40.18,29.06h-0.02v64.57c0,2.15,1.74,3.9,3.9,3.9h116.68
		c2.15,0,3.9-1.74,3.9-3.9v-36.97c0-2.24-1.82-4.06-4.06-4.06H159.3c-10.66,0-17.33-6.86-17.33-15.46c0-8.6,6.97-15.39,17.8-15.39
		c14.7,0,29.88,0,29.88,0c2.38,0,4.32-1.93,4.32-4.32v-13.09c0-2.11-1.91-4.34-4.37-4.34C184.93,710.2,109.72,710.19,109.71,710.19z
		 M90.77,747.33c0-8.6,6.97-15.57,15.57-15.57s15.57,6.97,15.57,15.57c0,8.6-6.97,15.57-15.57,15.57S90.77,755.93,90.77,747.33z"/>
	<path class="st1" d="M109.71,572.64c-21.89,0-39.69,7.29-40.18,29.06h-0.02v27.6v36.97v0c0,2.15,1.74,3.9,3.9,3.9h0h116.68h0
		c2.15,0,3.9-1.74,3.9-3.9v0V629.3v-27.6h-0.02c-0.49-21.78-18.28-29.06-40.18-29.06c-0.01,0-0.19,0-0.51,0c-2.04,0-41.01,0-43.05,0
		C109.89,572.64,109.72,572.64,109.71,572.64z M90.77,609.78c0-7.81,5.75-14.25,13.25-15.38c10.65,0.13,17.49,6.86,17.49,15.38
		c0,8.51-6.54,15.31-17.02,15.45C96.77,624.32,90.77,617.76,90.77,609.78z M172.71,609.78c0,7.97-6,14.53-13.72,15.45
		c-10.48-0.14-17.02-6.94-17.02-15.45c0-8.51,6.84-15.24,17.49-15.38C166.96,595.53,172.71,601.98,172.71,609.78z"/>
	<path class="st1" d="M109.71,303.34c-21.89,0-39.69,7.29-40.18,29.06h-0.02V360v36.97l0,0c0,2.15,1.74,3.9,3.9,3.9h0h116.68h0
		c2.15,0,3.9-1.74,3.9-3.9l0,0V360v-27.6h-0.02c-0.49-21.78-18.28-29.06-40.18-29.06c-0.01,0-0.19,0-0.51,0c-2.04,0-41.01,0-43.05,0
		C109.89,303.34,109.72,303.34,109.71,303.34z M159.47,325.11c7.49,1.12,13.25,7.57,13.25,15.38c0,7.97-6,14.53-13.72,15.45
		c-0.03,0-0.05,0-0.07,0v0h-54.97v-0.09c-7.46-1.15-13.18-7.58-13.18-15.36c0-7.81,5.75-14.25,13.25-15.38
		c0.68,0.01,1.35,0.05,2,0.11h51.44C158.11,325.15,158.78,325.11,159.47,325.11z"/>
</g>
<path class="st1" d="M258.27,563.6v36.49c0,2.12,1.72,3.84,3.84,3.84h114.89c2.12,0,3.84-1.72,3.84-3.84v-36.41
	c0-2.2-1.78-3.98-3.98-3.96c-7.04,0.04-95.04,0.01-114.7,0.01C260,559.72,258.27,561.45,258.27,563.6z"/>
<path class="st1" d="M256.35,395.52v33.09v0.07v69.99v9.76c0,2.15,1.74,3.9,3.9,3.9h12.06c2.32,0,4.77-1.88,4.77-4.2
	c0-2.76,0-5.84,0-9.18c0.01-0.09,0.03-0.18,0.03-0.28c0-4.35,0-7.96,0-13.21c0.3-9.68,7.97-15.19,15.39-15.19
	c10.06,0,42.1,0.18,52.1,0.18c6.97,0,16.97,5.53,16.97,15.44c0,0,0.48,3.75-1.45,5.07c-1.84,1.26-3.25,0.93-6.97,0.91
	c-5.99-0.03-19.99-0.05-19.99-0.05c-2.32,0-4.2,2.11-4.2,4.43v12.17c0,2.15,1.74,3.9,3.9,3.9h44h0.07c2.15,0,3.9-1.74,3.9-3.9l0,0
	v-11.98v-30.81c0,0,0,0,0,0v-36.98c0,0,0,0,0,0v-0.06c0-0.81-0.25-1.57-0.68-2.19c-0.71-1.07-1.92-1.78-3.29-1.77
	c-4.89,0.03-51.45-0.06-84.33-0.06c-6.3,0-15.42-5.43-15.42-15.57c0-7.79,0-11.04,0-13.5c0-2.17-1.76-3.92-3.92-3.92h-12.91
	C258.11,391.6,256.35,393.35,256.35,395.52z"/>
<path class="st1" d="M277.85,813.63c0-8.59,0-15.96,0-21.93c0-2.3-2.42-4.17-4.73-4.17h-11.97c-2.14,0-3.87,1.73-3.87,3.87v79.15
	v0.07c0,2.14,1.73,3.87,3.87,3.87h115.8h0c2.14,0,3.87-1.73,3.87-3.87v-0.07v-67.27V791.4v0c0-2.14-1.73-3.87-3.87-3.87h-0.07
	h-43.67c-2.14,0-3.87,1.73-3.87,3.87v12.08c0,2.3,1.87,4.4,4.17,4.4c0,0,13.89-0.02,19.84-0.05c3.69-0.02,5.09-0.34,6.92,0.91
	c1.92,1.31,1.44,5.03,1.44,5.03c0,9.84-9.93,15.33-16.85,15.33c-9.92,0-41.73,0.18-51.71,0.18
	C285.64,829.27,277.85,823.6,277.85,813.63z"/>
<path class="st1" d="M257.29,656.88v14.11c0,2.1,1.7,3.8,3.8,3.8l32.2,0c8.53,0,15.87,6.67,16,15.2c0.13,8.65-6.83,15.7-15.45,15.7
	h-32.68c-2.14,0-3.87,1.73-3.87,3.87v5.58v31.12c0,2.16,1.75,3.91,3.91,3.91h115.71c2.16,0,3.91-1.75,3.91-3.91v-36.65c0,0,0,0,0,0
	v-0.02c0-2.15-1.75-3.9-3.9-3.9h-32.19v-0.02c-8.38-0.18-15.12-7.01-15.12-15.43c0-8.42,6.74-15.26,15.12-15.43v-0.02h32.29
	c2.1,0,3.81-1.7,3.81-3.81v-0.3c0,0,0,0,0,0v-12.99c0,0,0,0,0,0v-0.82c0-2.11-1.73-3.83-3.87-3.83h-0.07H261.15
	C259.02,653.05,257.29,654.76,257.29,656.88z"/>
<path class="st1" d="M259.74,179.52c-2.16,0-3.91,1.75-3.91,3.91v38.05v0.08c0,2.16,1.75,3.91,3.91,3.91l0,0h117.17h0
	c2.16,0,3.91-1.75,3.91-3.91v-0.08v-80.09c0-2.16-1.75-3.91-3.91-3.91H364.8c-2.33,0-4.22,1.89-4.22,4.22l-0.64,22.32
	c0,9.96-8.49,15.51-15.49,15.51c-10.04,0-42.22,0.18-52.32,0.18"/>
<path class="st1" d="M303.66,262.34h-43.25c-2.15,0-3.89,1.73-3.89,3.85v14.2c0,2.11,1.71,3.83,3.83,3.83h32.4
	c8.58,0,15.97,6.72,16.1,15.3c0.14,8.7-6.88,15.79-15.54,15.79h-32.89c-2.15,0-3.9,1.74-3.9,3.9v5.61v31.32
	c0,2.17,1.76,3.94,3.94,3.94h116.43c2.17,0,3.94-1.76,3.94-3.94v-36.88c0,0,0,0,0,0v-0.02c0-2.17-1.76-3.92-3.92-3.92h-32.4v-0.02
	c-8.43-0.18-15.22-7.06-15.22-15.53c0-8.47,6.78-15.35,15.22-15.53v-0.02H377c2.12,0,3.83-1.71,3.83-3.83v-0.3c0,0,0,0,0,0v-13.07
	c0,0,0,0,0,0v-0.82c0-2.13-1.74-3.85-3.89-3.85h-0.07h-43.17c-7.33,0-13.46,5.13-15.02,11.99
	C317.11,267.47,310.99,262.34,303.66,262.34z"/>
<path class="st1" d="M483.69,462.99c-22.22,0-40.27,7.39-40.77,29.49h-0.02V558c0,2.18,1.77,3.95,3.95,3.95h118.4
	c2.18,0,3.95-1.77,3.95-3.95v-37.52c0-2.28-1.84-4.12-4.12-4.12h-82.94c-10.82,0-17.58-6.96-17.58-15.69
	c0-8.72,7.07-15.61,18.07-15.61c14.91,0,82.2,0,82.2,0c2.63,0,4.38-1.96,4.38-4.38V467.4c0-2.14-1.94-4.4-4.43-4.4
	C560.01,463,483.7,462.99,483.69,462.99z"/>
<path class="st1" d="M442.92,628.79h-0.02v93.12h0.02c0.5,22.1,18.55,29.49,40.77,29.49c0.01,0,76.33-0.01,81.08-0.01
	c2.49,0,4.43-2.26,4.43-4.4V733.7c0-2.42-1.96-4.38-4.38-4.38c0,0-67.29,0-82.2,0c-11,0-18.07-6.89-18.07-15.61
	c0-7.81,5.43-14.19,14.33-15.45h86.36c2.18,0,3.95-1.77,3.95-3.95v-0.41v-37.11v-0.41c0-2.18-1.77-3.95-3.95-3.95h-86.36
	c-8.9-1.25-14.33-7.64-14.33-15.45c0-8.72,7.07-15.61,18.07-15.61c14.91,0,82.2,0,82.2,0c2.42,0,4.38-1.96,4.38-4.38V603.7
	c0-2.14-1.94-4.4-4.43-4.4c-4.75,0-81.07-0.01-81.08-0.01C461.47,599.3,443.41,606.69,442.92,628.79z"/>
<path class="st1" d="M535.99,240.41c-6.59-0.11-12.14-3.47-13.24-9.46c-4.59-17.38-20.42-30.2-39.25-30.2
	c-22.11,0-40.08,17.68-40.58,39.67h-0.02v15.71v25.62c0,2.17,1.76,3.94,3.94,3.94h117.84c2.17,0,3.94-1.76,3.94-3.94V244.4
	c0-2.25-1.83-4.08-4.08-4.07C556.39,240.38,541,240.49,535.99,240.41z M481.26,257.3c-9.99,0.99-18.32-7.34-17.33-17.33
	c0.73-7.39,6.71-13.37,14.1-14.1c9.99-0.99,18.32,7.34,17.33,17.33C494.63,250.59,488.65,256.57,481.26,257.3z"/>
<path class="st1" d="M741.59,784.47c-2.38,0.02-4.29,1.95-4.3,4.33l-0.03,29.71c-0.55,6.87-6.43,9.83-12.3,9.55
	c-6.64-0.32-12.25-3.5-13.36-9.55c-4.64-17.54-20.61-30.47-39.6-30.47c-22.31,0-40.44,17.84-40.94,40.03h-0.02v15.85v25.85
	c0,2.19,1.78,3.97,3.97,3.97h118.9c2.19,0,3.97-1.78,3.97-3.97v-81.33c0-2.19-1.78-3.97-3.97-3.97
	C753.91,784.47,746.57,784.44,741.59,784.47z M667.9,845.88c-8.68,0-15.71-7.04-15.71-15.71c0-8.68,7.04-15.71,15.71-15.71
	s15.71,7.04,15.71,15.71C683.62,838.85,676.58,845.88,667.9,845.88z"/>
<path class="st1" d="M447.56,326.14c-2.37,0-3.99,1.73-3.99,4l-0.02,53.19v37.32l0,0c0,2.17,1.76,3.93,3.93,3.93h0h117.28
	c2.17,0,4.44-1.76,4.44-3.93l0,0v-37.32v-27.86l-0.02-25.36c0-2.25-2.2-3.98-4.41-3.98c-0.01,0-36.33,0-36.66,0
	c-2.06,0-41.4,0-43.45,0C484.32,326.14,447.57,326.14,447.56,326.14z M534.36,348.11c7.57,1.13,13.37,7.64,13.37,15.52
	c0,8.05-6.05,14.67-13.85,15.59c-0.03,0-0.05,0-0.07,0v0h-55.49v-0.09c-7.53-1.16-13.3-7.65-13.3-15.5
	c0-7.88,5.81-14.39,13.37-15.52c0.69,0.01,1.36,0.05,2.02,0.11h51.93C532.99,348.16,533.67,348.12,534.36,348.11z"/>
<path class="st1" d="M579.15,54.61l-0.65,22.57c0,7.08-4.25,11.95-9.24,14.22l-0.02-19.99c0-2.26-2.21-4-4.44-4
	c-0.01,0-36.54,0-36.87,0c-2.07,0-41.63,0-43.7,0c-0.33,0-37.28,0-37.29,0c-2.38,0-4.01,1.74-4.01,4.03l-0.02,53.5v37.54
	c0,2.18,1.77,3.96,3.96,3.96h0H564.8c2.18,0,4.46-1.77,4.46-3.96V139.3h26.4h0c2.18,0,3.96-1.77,3.96-3.96v-0.08V54.3
	c0-2.18-1.77-3.96-3.96-3.96h-12.25C581.06,50.35,579.15,52.26,579.15,54.61z M533.67,120.8h-55.81v-0.09
	c-7.57-1.17-13.38-7.69-13.38-15.59c0-7.93,5.84-14.47,13.45-15.61c0.69,0.01,1.37,0.05,2.03,0.11h52.22
	c0.66-0.06,1.34-0.1,2.03-0.11c7.61,1.14,13.45,7.68,13.45,15.61c0,8.09-6.09,14.76-13.93,15.68
	C533.72,120.8,533.69,120.8,533.67,120.8L533.67,120.8z"/>
<path class="st1" d="M648.13,502.99h-13.17c-2.21,0-4,1.79-4,4v105.24c0,2.21,1.79,4,4,4h13.17c2.21,0,4-1.79,4-4
	c0-4.51,0-8.23,0-13.73c0-9.28,7.25-15.81,15.73-15.81l86.19-0.18c2.15,0,3.9-1.78,3.9-3.98v-37.73c0-2.28-1.81-4.12-4.04-4.11
	c-4.99,0.03-52.49-0.06-86.04-0.06c-6.43,0-15.73-5.54-15.73-15.88c0-7.95,0-11.26,0-13.77
	C652.13,504.78,650.34,502.99,648.13,502.99z"/>
<path class="st1" d="M652.13,679.73c0-8.84,0-16.56,0-22.69c0-2.37-2.52-4.28-4.89-4.28h-12.31c-2.2,0-3.98,1.78-3.98,3.97v81.36
	v0.08c0,2.2,1.78,3.98,3.98,3.98h65.43c2.42,0,4.75-1.96,4.75-4.38l0-17.49c0-6.62,6.12-15.75,16.01-15.75
	c10.33,0,16.26,9.64,16.26,15.75c0,7.27,0,12.31,0,17.5c0,2.42,1.96,4.37,4.38,4.37h12.22c2.2,0,3.97-1.78,3.97-3.98v-0.08v-81.36
	c0-2.2-1.78-3.98-3.98-3.98h-65.52c-2.37,0-4.52,1.92-4.52,4.29v22.69c0,8.33-7.63,15.74-16.09,15.74
	C661.23,695.47,652.13,690.25,652.13,679.73z"/>
<path class="st1" d="M717.11,366.96c22.34,0,40.49,7.44,40.99,29.65h0.02v65.88c0,2.2-1.78,3.98-3.98,3.98H635.11
	c-2.2,0-3.98-1.78-3.98-3.98v-37.72c0-2.29,1.85-4.14,4.14-4.14h83.4c10.88,0,17.68-7,17.68-15.77c0-8.77-7.11-15.7-18.17-15.7
	c-15,0-82.65,0-82.65,0c-2.65,0-4.4-1.97-4.4-4.4v-13.36c0-2.15,1.95-4.43,4.46-4.43C640.37,366.96,717.1,366.96,717.11,366.96z"/>
<path class="st1" d="M651.96,190.27c0,2.51,0,0.38,0,8.33c0,9.92,8.56,15.41,14.94,15.84c22.94,0,49.86,0,49.87,0
	c22.34,0,40.49,7.44,40.99,29.65h0.02v65.88c0,2.2-1.78,3.98-3.98,3.98H634.76c-2.2,0-3.98-1.78-3.98-3.98v-37.72
	c0-2.29,1.85-4.14,4.14-4.14h83.4c10.88,0,17.68-7,17.68-15.77c0-8.77-7.11-15.7-18.17-15.7c-15,0-82.65,0-82.65,0
	c-2.65,0-4.4-1.97-4.4-4.4v-9.22v-4.14v-3.68v-24.92c0-2.21,1.79-4,4-4h13.17C650.17,186.27,651.96,188.06,651.96,190.27z"/>
<path class="st1" d="M950.35,609.12h0.02v93.62h-0.02c-0.5,22.22-18.65,29.65-40.99,29.65c-0.01,0-76.74-0.01-81.52-0.01
	c-2.51,0-4.46-2.28-4.46-4.43V714.6c0-2.43,1.97-4.4,4.4-4.4c0,0,67.66,0,82.65,0c11.06,0,18.17-6.93,18.17-15.7
	c0-7.85-5.46-14.27-14.41-15.53h-86.83c-2.2,0-3.98-1.78-3.98-3.98v-0.41v-37.31v-0.41c0-2.2,1.78-3.98,3.98-3.98h86.83
	c8.95-1.26,14.41-7.68,14.41-15.53c0-8.77-7.11-15.7-18.17-15.7c-15,0-82.65,0-82.65,0c-2.43,0-4.4-1.97-4.4-4.4V583.9
	c0-2.15,1.95-4.43,4.46-4.43c4.78,0,81.51-0.01,81.52-0.01C931.7,579.46,949.85,586.9,950.35,609.12z"/>
<path class="st1" d="M819.98,281.09v15.28c0,2.27,1.84,4.12,4.12,4.12h34.86c9.24,0,17.18,7.23,17.33,16.46
	c0.15,9.36-7.4,17-16.73,17h-35.39c-2.32,0-4.19,1.88-4.19,4.19v6.04v33.7c0,2.34,1.9,4.24,4.24,4.24h46.39
	c7.89,0,15.95-5.33,16.16-12.9c0.07-2.52,0.06-7.84,0.04-11.52c-0.01-2.17,1.74-3.93,3.91-3.93l58.94-0.16
	c2.27,0,4.11-1.87,4.11-4.19v-39.74c0-2.4-1.91-4.34-4.26-4.33c-4.8,0.03-27.85-0.05-58.74-0.07c-2.17,0-3.92-1.75-3.92-3.92
	c0.01-3.67,0.02-8.96,0.01-11.52c-0.02-7.57-8.27-12.9-16.16-12.9h-46.54C821.86,276.95,819.98,278.8,819.98,281.09z"/>
</svg>
