<?xml version="1.0" encoding="utf-8"?>
<!-- Generator: Adobe Illustrator 27.1.1, SVG Export Plug-In . SVG Version: 6.00 Build 0)  -->
<svg version="1.1" id="Capa_1" xmlns="http://www.w3.org/2000/svg" xmlns:xlink="http://www.w3.org/1999/xlink" x="0px" y="0px"
	 viewBox="0 0 279.66 282.38" style="enable-background:new 0 0 279.66 282.38;" xml:space="preserve">
<style type="text/css">
	.st0{fill:#262636;}
</style>
<path class="st0" d="M158.22,141.47c0-0.05,0.01-0.11,0.01-0.16L273.34,26.19c5.75-5.75,5.75-15.08,0-20.83v0
	c-5.75-5.75-15.08-5.75-20.83,0c0,0-79.6,78.97-112.32,111.44C107.49,84.36,27.82,5.31,27.82,5.31c-5.75-5.75-15.08-5.75-20.83,0v0
	c-5.75,5.75-5.75,15.08,0,20.83L122.1,141.26c0,0.06,0.01,0.11,0.01,0.17L6.99,256.55c-5.75,5.75-5.75,15.08,0,20.83v0
	c5.75,5.75,15.08,5.75,20.83,0l112.32-112.32l112.37,112.37c5.75,5.75,15.08,5.75,20.83,0v0c5.75-5.75,5.75-15.08,0-20.83
	L158.22,141.47z"/>
</svg>
