<?xml version="1.0" encoding="utf-8"?>
<!-- Generator: Adobe Illustrator 27.1.1, SVG Export Plug-In . SVG Version: 6.00 Build 0)  -->
<svg version="1.1" id="Capa_1" xmlns="http://www.w3.org/2000/svg" xmlns:xlink="http://www.w3.org/1999/xlink" x="0px" y="0px"
	 viewBox="0 0 191.1 102.1" style="enable-background:new 0 0 191.1 102.1;" xml:space="preserve">
<style type="text/css">
	.st0{fill:none;}
	.st1{fill:#CE4B4A;}
	.st2{fill:#7A6BAE;}
	.st3{fill:#030304;}
</style>
<path class="st0" d="M61.3,73.2c2.7,2.7,6.1,4.1,10.3,4.1h12.6V60.7H55.7C56.6,66.3,58.5,70.5,61.3,73.2z"/>
<path class="st0" d="M116,43.7c-1.9,3.7-4.9,7.1-8.9,10.1v18.9c0,3,1.6,4.6,4.7,4.6h39.9c4.3-0.2,7.8-1.9,10.6-4.9s4.9-6.5,6.2-10.4
	s1.9-7.9,1.9-11.9s-0.6-8-1.9-11.9c-1.3-3.9-3.4-7.3-6.2-10.4c-2.8-3-6.4-4.7-10.6-4.9h-33.5c0.8,2.5,1.1,5.1,1.1,7.6
	C119.3,34.9,118.1,39.4,116,43.7z"/>
<path class="st1" d="M90.6,37.2c0.1,0,0.1-0.1,0.2-0.1C90.7,37.1,90.7,37.1,90.6,37.2z"/>
<path class="st2" d="M187.8,28.2c-2.2-7.1-5.9-13.4-11-19s-11.6-8.6-19.4-9h-75c0.7,0,1.3,0.1,2,0.2h1c7.9,0.2,14.4,2,19.4,5.4
	s8.7,7.2,11,11.6c0.9,1.8,1.7,3.7,2.2,5.5h33.5c4.3,0.2,7.8,1.9,10.6,4.9s4.9,6.5,6.2,10.4s1.9,7.9,1.9,11.9s-0.6,8-1.9,11.9
	c-1.3,3.9-3.4,7.3-6.2,10.4c-2.8,3-6.4,4.7-10.6,4.9h-39.9c-3.2,0-4.7-1.5-4.7-4.6V53.8c-0.7,0.5-1.3,1-2.1,1.5
	c-5.1,3.4-11.6,5.2-19.5,5.4h-1.2v16.6H108c3.2,0.1,5.8,1.3,7.9,3.6c2.1,2.2,3.1,5,3.1,8.1c-0.1,3-1.2,5.6-3.3,7.7s-4.7,3.2-7.7,3.3
	h49.3c7.9-0.4,14.4-3.5,19.5-9s8.8-11.9,11-19s3.3-14.4,3.3-21.8S190,35.3,187.8,28.2z"/>
<path class="st3" d="M119.1,88.9c0-3.2-1-5.8-3.1-8.1c-2.1-2.2-4.7-3.4-7.9-3.6H84.2H71.6c-4.2,0-7.6-1.3-10.3-4.1
	c-2.8-2.7-4.7-6.9-5.6-12.5h28.5h1.2c7.9-0.2,14.4-2,19.5-5.4c0.7-0.5,1.4-1,2.1-1.5c4.1-3,7-6.4,8.9-10.1c2.2-4.3,3.3-8.8,3.3-13.3
	c0-2.5-0.4-5.1-1.1-7.6c-0.6-1.8-1.3-3.7-2.2-5.5c-2.2-4.3-5.9-8.2-11-11.6S93.3,0.4,85.5,0.2h-1c-0.7-0.1-1.3-0.2-2-0.2h-7.2H40.7
	H19.9h-8.3C8.5,0,5.7,1,3.5,3.1S0.1,7.8,0,11v80.1c0,3.2,1.1,5.8,3.5,7.9c2.3,2.1,5,3.1,8.2,3.1c6.8-0.6,10.5-4.2,11.1-11v-64
	c0-2.8,1.5-4.3,4.4-4.4h13.5h34.5h11.3c2.1,0.1,3.9,0.6,5.3,1.4c1.4,0.8,2.4,1.8,3.1,2.9s1,2.2,1,3.3s-0.3,2.2-1,3.3s-1.7,2-3.1,2.9
	c-0.3,0.2-0.7,0.3-1,0.5c-0.1,0-0.1,0.1-0.2,0.1c-1.2,0.5-2.6,0.8-4.1,0.8H41.9c-3.2,0-5.8,1.1-8,3.3c-2.2,2.2-3.3,4.9-3.3,8
	c0,1.2,1,6.9,3,17.1c1.5,9.1,5.6,17,12.3,23.7c6.8,6.7,14.3,9.9,22.6,9.8h26.7h12.9c3-0.1,5.6-1.2,7.7-3.3
	C117.9,94.5,119,91.9,119.1,88.9z"/>
</svg>
