<?xml version="1.0" encoding="utf-8"?>
<!-- Generator: Adobe Illustrator 27.1.1, SVG Export Plug-In . SVG Version: 6.00 Build 0)  -->
<svg version="1.1" id="Capa_1" xmlns="http://www.w3.org/2000/svg" xmlns:xlink="http://www.w3.org/1999/xlink" x="0px" y="0px"
	 viewBox="0 0 1018 932" style="enable-background:new 0 0 1018 932;" xml:space="preserve">
<style type="text/css">
	.st0{fill:#020203;}
	.st1{fill:#C93F40;}
</style>
<rect class="st0" width="1018" height="932"/>
<g>
	<path class="st1" d="M421.06,88.28V72.73c0-2.77-2.24-5.03-5.03-5.03H313.22h-0.09c-2.77,0-5.03,2.24-5.03,5.03l0,0v150.42l0,0
		c0,2.77,2.24,5.03,5.03,5.03h0.09h48.68c2.77,0,5.03-2.24,5.03-5.03c0,0,0.15-32.69,0.15-41.68c0-12.89,11.55-20.15,19.9-20.15
		c11.16,0,20.92-0.39,28.67-0.39c2.99,0,5.41-2.42,5.41-5.41v-15.15c0-2.99-2.42-5.41-5.41-5.41l-28.92-0.76
		c-9.14,0-19.88-6.91-19.88-19.88c0-9.76,7.37-19.88,20.32-19.88c11.16,0,20.74,0,28.49,0C418.65,94.43,421.06,91.27,421.06,88.28z"
		/>
	<path class="st1" d="M421.93,725v-15.55c0-2.77-2.24-5.03-5.03-5.03H314.09H314c-2.77,0-5.03,2.24-5.03,5.03l0,0v150.42l0,0
		c0,2.77,2.24,5.03,5.03,5.03h0.09h48.68c2.77,0,5.03-2.24,5.03-5.03c0,0,0.15-32.69,0.15-41.68c0-12.89,11.55-20.15,19.9-20.15
		c11.16,0,20.92-0.39,28.67-0.39c2.99,0,5.41-2.42,5.41-5.41V777.1c0-2.99-2.42-5.41-5.41-5.41l-28.92-0.76
		c-9.14,0-19.88-6.91-19.88-19.88c0-9.76,7.37-19.88,20.32-19.88c11.16,0,20.74,0,28.49,0C419.52,731.15,421.93,727.99,421.93,725z"
		/>
	<path class="st1" d="M750.73,543.93c0-28.32-9.43-51.34-37.59-51.98v-0.03h-83.53c-2.78,0-5.04,2.25-5.04,5.04v150.93
		c0,2.78,2.25,5.04,5.04,5.04h47.82c2.9,0,5.25-2.35,5.25-5.25v-39.62c0-13.79,8.87-22.42,20-22.42c11.12,0,19.91,9.02,19.91,23.03
		c0,19.02,0,38.65,0,38.65c0,3.08,2.5,5.59,5.59,5.59h16.93c2.73,0,5.61-2.47,5.61-5.65C750.71,641.23,750.73,543.95,750.73,543.93z
		 M702.68,519.43c11.12,0,20.14,9.02,20.14,20.14c0,11.12-9.02,20.14-20.14,20.14c-11.12,0-20.14-9.02-20.14-20.14
		C682.54,528.45,691.56,519.43,702.68,519.43z"/>
	<path class="st1" d="M700.92,756.15c0-28.32-9.43-51.34-37.59-51.98v-0.03h-83.53c-2.78,0-5.04,2.25-5.04,5.04v150.93
		c0,2.78,2.25,5.04,5.04,5.04h47.82c2.9,0,5.25-2.35,5.25-5.25V820.3c0-13.79,8.87-22.42,20-22.42c11.12,0,19.91,9.02,19.91,23.03
		c0,19.02,0,38.65,0,38.65c0,3.08,2.5,5.59,5.59,5.59h16.93c2.73,0,5.61-2.47,5.61-5.65C700.91,853.46,700.92,756.17,700.92,756.15z
		 M652.88,731.65c11.12,0,20.14,9.02,20.14,20.14c0,11.12-9.02,20.14-20.14,20.14c-11.12,0-20.14-9.02-20.14-20.14
		C632.74,740.67,641.76,731.65,652.88,731.65z"/>
	<path class="st1" d="M517.79,704.15h-47.94c-2.79,0-5.04,2.26-5.04,5.04v150.93c0,2.79,2.26,5.04,5.04,5.04h47.83
		c2.89,0,5.23-2.34,5.2-5.23c-0.05-9.25-0.01-124.86-0.01-150.68C522.89,706.43,520.62,704.15,517.79,704.15z"/>
	<path class="st1" d="M386.05,518.74c11.2,0,20.8,0,28.58,0c3,0,5.43-3.15,5.43-6.16v-15.6c0-2.79-2.25-5.04-5.04-5.04H311.87h-0.09
		c-2.79,0-5.04,2.25-5.04,5.04V647.9l0,0c0,2.79,2.25,5.04,5.04,5.04h0.09h87.67h15.48l0,0c2.79,0,5.04-2.25,5.04-5.04v-0.09v-56.92
		c0-2.79-2.25-5.04-5.04-5.04h-15.74c-3,0-5.73,2.44-5.73,5.43c0,0,0.03,18.1,0.07,25.86c0.03,4.81,0.44,6.63-1.19,9.02
		c-1.71,2.5-6.56,1.88-6.56,1.88c-12.82,0-19.98-12.94-19.98-21.96c0-12.93-0.23-54.39-0.23-67.39
		C365.67,528.89,373.06,518.74,386.05,518.74z"/>
	<path class="st1" d="M579.88,632.26c-0.03-3.02-2.48-5.45-5.5-5.46l-37.71-0.04c-8.72-0.7-12.48-8.16-12.12-15.61
		c0.41-8.43,4.44-15.55,12.12-16.96c22.27-5.89,38.68-26.16,38.68-50.27c0-28.32-22.65-51.33-50.81-51.97v-0.03h-20.12H471.6
		c-2.78,0-5.04,2.26-5.04,5.04V647.9c0,2.78,2.26,5.04,5.04,5.04h103.24c2.78,0,5.04-2.26,5.04-5.04
		C579.88,647.9,579.92,638.59,579.88,632.26z M501.93,538.72c0-11.02,8.94-19.94,19.94-19.94c11.02,0,19.94,8.94,19.94,19.94
		s-8.94,19.94-19.94,19.94C510.85,558.68,501.93,549.74,501.93,538.72z"/>
	<path class="st1" d="M591.32,71.97c0-3.04-2.22-5.12-5.14-5.12l-68.3-0.03h-47.92l0,0c-2.79,0-5.05,2.26-5.05,5.05l0,0v150.6
		c0,2.79,2.26,5.7,5.05,5.7l0,0h47.92h35.77l32.56-0.03c2.89,0,5.11-2.82,5.11-5.66c0-0.01,0-46.65,0-47.07c0-2.65,0-53.16,0-55.79
		C591.32,119.18,591.32,71.99,591.32,71.97z M563.11,183.43c-1.45,9.72-9.81,17.17-19.93,17.17c-10.34,0-18.84-7.77-20.02-17.78
		c0-0.04,0-0.06,0-0.09l0,0v-71.25h0.12c1.49-9.67,9.82-17.08,19.9-17.08c10.12,0,18.48,7.46,19.93,17.17
		c-0.01,0.89-0.06,1.75-0.14,2.59v66.68C563.05,181.67,563.1,182.54,563.11,183.43z"/>
	<path class="st1" d="M569.92,284.53c0-3.04-2.22-5.12-5.14-5.12l-68.3-0.03h-47.92l0,0c-2.79,0-5.05,2.26-5.05,5.05l0,0v150.6
		c0,2.79,2.26,5.7,5.05,5.7l0,0h47.92h35.77l32.56-0.03c2.89,0,5.11-2.82,5.11-5.66c0-0.01,0-46.65,0-47.07c0-2.65,0-53.16,0-55.79
		C569.92,331.73,569.92,284.54,569.92,284.53z M541.71,395.98c-1.45,9.72-9.81,17.17-19.93,17.17c-10.34,0-18.84-7.77-20.02-17.78
		c0-0.04,0-0.06,0-0.09l0,0v-71.25h0.12c1.49-9.67,9.82-17.08,19.9-17.08c10.12,0,18.48,7.46,19.93,17.17
		c-0.01,0.89-0.06,1.75-0.14,2.59v66.68C541.65,394.22,541.7,395.1,541.71,395.98z"/>
	<path class="st1" d="M410.85,301.03v-16.7c0-2.8-2.27-5.07-5.07-5.07H272.35c-2.8,0-5.07,2.27-5.07,5.07v16.7
		c0,2.8,2.27,5.07,5.07,5.07c5.72,0,10.43,0,17.41,0c11.77,0,20.05,9.19,20.05,19.94l0.23,109.28c0,2.73,2.26,4.94,5.05,4.94h47.84
		c2.89,0,5.22-2.29,5.21-5.12c-0.04-6.33,0.08-66.55,0.08-109.09c0-8.15,7.02-19.94,20.13-19.94c10.08,0,14.28,0,17.46,0
		C408.58,306.11,410.85,303.84,410.85,301.03z"/>
</g>
</svg>
