<?xml version="1.0" encoding="utf-8"?>
<!-- Generator: Adobe Illustrator 27.1.1, SVG Export Plug-In . SVG Version: 6.00 Build 0)  -->
<svg version="1.1" id="Capa_1" xmlns="http://www.w3.org/2000/svg" xmlns:xlink="http://www.w3.org/1999/xlink" x="0px" y="0px"
	 viewBox="0 0 410.02 101.37" style="enable-background:new 0 0 410.02 101.37;" xml:space="preserve">
<style type="text/css">
	.st0{fill:#030304;}
</style>
<g>
	<path class="st0" d="M18.02,87.38H0V20.6h45.21c4.86,0,8.99,0.49,12.37,1.5c3.38,1.01,6.14,2.44,8.26,4.28
		c2.12,1.84,3.66,4.07,4.62,6.68c0.96,2.61,1.43,5.52,1.43,8.73c0,2.83-0.41,5.29-1.2,7.38s-1.86,3.92-3.21,5.42
		c-1.35,1.5-2.91,2.78-4.69,3.81c-1.78,1.03-3.66,1.9-5.63,2.57l21.88,26.39H57.96L37.74,62.77H18.04v24.62H18.02z M53.64,41.71
		c0-1.31-0.17-2.4-0.51-3.3c-0.34-0.9-0.94-1.65-1.78-2.2c-0.83-0.56-1.97-0.98-3.38-1.24c-1.41-0.26-3.17-0.39-5.27-0.39H18.02
		v14.3H42.7c2.1,0,3.87-0.13,5.27-0.39c1.41-0.26,2.53-0.66,3.38-1.24c0.86-0.58,1.43-1.31,1.78-2.2
		C53.47,44.1,53.64,42.99,53.64,41.71z"/>
	<path class="st0" d="M177.85,54.03c0,5.74-1.05,10.79-3.17,15.2c-2.1,4.39-5.12,8.07-9.03,11c-3.92,2.95-8.67,5.18-14.26,6.68
		c-5.59,1.5-11.86,2.27-18.84,2.27s-13.25-0.75-18.88-2.27c-5.63-1.5-10.4-3.72-14.36-6.68c-3.96-2.95-7-6.61-9.14-11
		c-2.14-4.39-3.21-9.46-3.21-15.2s1.07-10.79,3.21-15.2c2.14-4.41,5.18-8.07,9.14-11c3.96-2.93,8.73-5.18,14.36-6.68
		c5.63-1.5,11.92-2.27,18.88-2.27s13.25,0.75,18.84,2.27c5.59,1.5,10.34,3.72,14.26,6.68s6.93,6.61,9.03,11
		C176.8,43.25,177.85,48.3,177.85,54.03z M159.63,54.03c0-2.5-0.39-4.99-1.2-7.47c-0.79-2.48-2.2-4.71-4.24-6.68
		c-2.03-1.97-4.79-3.57-8.28-4.82c-3.49-1.24-7.96-1.84-13.36-1.84c-3.64,0-6.83,0.28-9.57,0.86c-2.74,0.58-5.14,1.35-7.15,2.35
		c-2.01,1.01-3.7,2.18-5.05,3.53c-1.37,1.35-2.44,2.78-3.25,4.32c-0.81,1.54-1.39,3.15-1.73,4.82c-0.34,1.67-0.51,3.32-0.51,4.92
		c0,1.65,0.17,3.32,0.51,5.01c0.34,1.69,0.92,3.3,1.73,4.84c0.81,1.54,1.9,2.98,3.25,4.3c1.37,1.33,3.04,2.48,5.05,3.47
		c2.01,0.98,4.39,1.78,7.15,2.33c2.76,0.58,5.95,0.86,9.57,0.86c5.42,0,9.87-0.62,13.36-1.84c3.49-1.22,6.25-2.83,8.28-4.82
		c2.03-1.97,3.42-4.2,4.24-6.68C159.23,59.02,159.63,56.54,159.63,54.03z"/>
	<path class="st0" d="M260.81,85.43c-2.38,0.77-4.82,1.46-7.34,2.01c-2.53,0.56-5.2,1.01-7.98,1.28c-2.8,0.3-5.8,0.43-9.01,0.43
		c-6.81,0-13.06-0.73-18.79-2.18c-5.71-1.46-10.64-3.66-14.77-6.59c-4.13-2.93-7.34-6.59-9.65-10.98
		c-2.29-4.39-3.45-9.52-3.45-15.39s1.16-10.98,3.45-15.39c2.31-4.39,5.52-8.05,9.65-10.98c4.13-2.93,9.05-5.14,14.77-6.59
		c5.71-1.46,11.99-2.18,18.79-2.18c3.21,0,6.21,0.15,9.01,0.43c2.8,0.3,5.46,0.73,7.98,1.28c2.53,0.58,4.97,1.24,7.34,2.01
		c2.35,0.77,4.71,1.65,7.04,2.63v16.22c-1.84-1.01-3.79-1.99-5.82-3c-2.03-0.98-4.3-1.88-6.76-2.68c-2.46-0.79-5.18-1.43-8.11-1.95
		c-2.95-0.49-6.27-0.75-9.97-0.75c-5.67,0-10.38,0.58-14.13,1.76c-3.75,1.16-6.72,2.72-8.97,4.67c-2.23,1.95-3.81,4.17-4.71,6.68
		c-0.9,2.5-1.37,5.12-1.37,7.79c0,1.78,0.19,3.53,0.58,5.27c0.39,1.73,1.03,3.36,1.95,4.9c0.9,1.54,2.1,2.95,3.55,4.26
		c1.46,1.31,3.27,2.42,5.44,3.36c2.16,0.94,4.71,1.67,7.6,2.2c2.89,0.54,6.25,0.79,10.04,0.79c3.7,0,7.02-0.24,9.97-0.71
		c2.95-0.47,5.65-1.09,8.11-1.86c2.46-0.77,4.71-1.67,6.76-2.65c2.03-0.98,3.98-1.99,5.82-3.04v16.22
		C265.52,83.79,263.19,84.66,260.81,85.43z"/>
	<path class="st0" d="M284.68,87.38V20.6h18.02v66.78H284.68z"/>
	<path class="st0" d="M410.02,54.03c0,5.74-1.05,10.79-3.17,15.2c-2.1,4.39-5.12,8.07-9.03,11c-3.92,2.95-8.67,5.18-14.26,6.68
		c-5.59,1.5-11.86,2.27-18.84,2.27c-6.96,0-13.25-0.75-18.88-2.27c-5.63-1.5-10.4-3.72-14.36-6.68c-3.96-2.95-7-6.61-9.14-11
		c-2.14-4.39-3.21-9.46-3.21-15.2s1.07-10.79,3.21-15.2s5.18-8.07,9.14-11s8.73-5.18,14.36-6.68c5.63-1.5,11.92-2.27,18.88-2.27
		c6.96,0,13.25,0.75,18.84,2.27c5.59,1.5,10.34,3.72,14.26,6.68c3.92,2.95,6.94,6.61,9.03,11C408.95,43.25,410.02,48.3,410.02,54.03
		z M391.78,54.03c0-2.5-0.39-4.99-1.2-7.47c-0.79-2.48-2.2-4.71-4.24-6.68c-2.03-1.97-4.79-3.57-8.28-4.82s-7.96-1.84-13.36-1.84
		c-3.64,0-6.83,0.28-9.57,0.86c-2.76,0.56-5.14,1.35-7.15,2.35c-2.01,1.01-3.7,2.18-5.05,3.53c-1.37,1.35-2.44,2.78-3.25,4.32
		c-0.81,1.54-1.39,3.15-1.73,4.82c-0.34,1.67-0.51,3.32-0.51,4.92c0,1.65,0.17,3.32,0.51,5.01c0.34,1.69,0.92,3.3,1.73,4.84
		c0.81,1.54,1.9,2.98,3.25,4.3c1.37,1.33,3.04,2.48,5.05,3.47c2.01,0.98,4.39,1.78,7.15,2.33c2.76,0.58,5.95,0.86,9.57,0.86
		c5.42,0,9.87-0.62,13.36-1.84c3.49-1.22,6.25-2.83,8.28-4.82c2.03-1.97,3.42-4.2,4.24-6.68C391.4,59.02,391.78,56.54,391.78,54.03z
		"/>
</g>
</svg>
