<?xml version="1.0" encoding="utf-8"?>
<!-- Generator: Adobe Illustrator 27.1.1, SVG Export Plug-In . SVG Version: 6.00 Build 0)  -->
<svg version="1.1" id="Capa_1" xmlns="http://www.w3.org/2000/svg" xmlns:xlink="http://www.w3.org/1999/xlink" x="0px" y="0px"
	 viewBox="0 0 223.29 168.86" style="enable-background:new 0 0 223.29 168.86;" xml:space="preserve">
<style type="text/css">
	.st0{fill:none;}
	.st1{fill:#CE4A49;}
	.st2{fill:#010202;}
</style>
<path class="st0" d="M77.4,86.07c2.7,2.7,6.14,4.05,10.31,4.05h12.63V73.57H71.82C72.72,79.2,74.58,83.37,77.4,86.07z"/>
<path class="st0" d="M132.05,56.59c-1.89,3.73-4.86,7.1-8.91,10.11v18.86c0,3.04,1.58,4.56,4.73,4.56h39.87
	c4.28-0.22,7.83-1.86,10.64-4.9c2.81-3.04,4.87-6.5,6.17-10.39c1.29-3.89,1.94-7.86,1.94-11.91s-0.65-8.02-1.94-11.91
	c-1.3-3.89-3.35-7.35-6.17-10.39c-2.82-3.04-6.36-4.67-10.64-4.9H134.2c0.76,2.52,1.15,5.06,1.15,7.6
	C135.35,47.83,134.25,52.26,132.05,56.59z"/>
<path class="st1" d="M106.7,50.08c0.07-0.03,0.13-0.06,0.19-0.09C106.83,50.03,106.76,50.05,106.7,50.08z"/>
<path class="st1" d="M203.9,41.13c-2.25-7.1-5.91-13.43-10.98-19.01s-11.55-8.59-19.43-9.04H98.52c0.68,0,1.35,0.06,2.03,0.17h1.01
	c7.88,0.23,14.36,2.03,19.43,5.41s8.73,7.24,10.98,11.57c0.95,1.83,1.68,3.66,2.23,5.49h33.54c4.28,0.23,7.83,1.86,10.64,4.9
	c2.81,3.04,4.87,6.5,6.17,10.39c1.29,3.89,1.94,7.86,1.94,11.91s-0.65,8.02-1.94,11.91c-1.3,3.89-3.35,7.35-6.17,10.39
	c-2.82,3.04-6.36,4.67-10.64,4.9h-39.87c-3.15,0-4.73-1.52-4.73-4.56V66.7c-0.66,0.49-1.35,0.98-2.07,1.46
	c-5.13,3.38-11.63,5.18-19.51,5.41h-1.22v16.56h23.86c3.15,0.11,5.77,1.3,7.86,3.55c2.08,2.25,3.12,4.96,3.12,8.11
	c-0.11,3.04-1.21,5.6-3.29,7.69c-2.09,2.09-4.65,3.18-7.69,3.29h49.29c7.88-0.45,14.39-3.46,19.51-9.04
	c5.12-5.58,8.79-11.91,10.98-19.01c2.2-7.1,3.29-14.36,3.29-21.79S206.15,48.23,203.9,41.13z"/>
<path class="st2" d="M135.18,101.78c0-3.15-1.04-5.85-3.12-8.11c-2.09-2.25-4.71-3.43-7.86-3.55h-23.86H87.71
	c-4.17,0-7.6-1.35-10.31-4.05c-2.82-2.7-4.67-6.87-5.58-12.5h28.51h1.22c7.88-0.22,14.39-2.03,19.51-5.41
	c0.72-0.48,1.41-0.96,2.07-1.46c4.05-3.02,7.02-6.39,8.91-10.11c2.2-4.33,3.29-8.76,3.29-13.26c0-2.54-0.39-5.08-1.15-7.6
	c-0.55-1.84-1.29-3.67-2.23-5.49c-2.25-4.33-5.91-8.19-10.98-11.57s-11.55-5.18-19.43-5.41h-1.01c-0.68-0.11-1.35-0.17-2.03-0.17
	h-7.25H56.79H36.01h-8.28c-3.15,0-5.86,1.04-8.11,3.13c-2.25,2.09-3.44,4.7-3.55,7.86v80.08c0,3.15,1.15,5.77,3.46,7.86
	c2.31,2.08,5.04,3.13,8.19,3.13c6.76-0.56,10.47-4.22,11.15-10.98V40.12c0-2.81,1.46-4.28,4.39-4.39h13.52h34.48h11.31
	c2.14,0.11,3.91,0.59,5.32,1.44c1.41,0.84,2.45,1.8,3.13,2.87c0.68,1.07,1.01,2.17,1.01,3.29c0,1.13-0.34,2.23-1.01,3.29
	c-0.68,1.07-1.72,2.03-3.13,2.87c-0.31,0.19-0.65,0.35-1,0.5c-0.06,0.03-0.13,0.06-0.19,0.09c-1.18,0.48-2.55,0.77-4.13,0.85h-44.6
	c-3.15,0-5.83,1.1-8.02,3.29s-3.29,4.87-3.29,8.02c0,1.24,1.01,6.93,3.04,17.06c1.46,9.12,5.58,17.01,12.33,23.65
	c6.76,6.65,14.3,9.91,22.64,9.8h26.65h12.88c3.04-0.11,5.6-1.21,7.69-3.29C133.97,107.39,135.07,104.82,135.18,101.78z"/>
<g>
	<path class="st2" d="M23.88,158.34h-8.42v-31.2h21.12c2.27,0,4.2,0.23,5.78,0.7c1.58,0.47,2.87,1.14,3.86,2
		c0.99,0.86,1.71,1.9,2.16,3.12c0.45,1.22,0.67,2.58,0.67,4.08c0,1.32-0.19,2.47-0.56,3.45c-0.37,0.98-0.87,1.83-1.5,2.53
		c-0.63,0.7-1.36,1.3-2.19,1.78c-0.83,0.48-1.71,0.89-2.63,1.2l10.22,12.33h-9.85l-9.45-11.49h-9.2V158.34z M40.52,137
		c0-0.61-0.08-1.12-0.24-1.54c-0.16-0.42-0.44-0.77-0.83-1.03c-0.39-0.26-0.92-0.46-1.58-0.58c-0.66-0.12-1.48-0.18-2.46-0.18H23.88
		v6.68h11.53c0.98,0,1.81-0.06,2.46-0.18c0.66-0.12,1.18-0.31,1.58-0.58s0.67-0.61,0.83-1.03C40.44,138.12,40.52,137.6,40.52,137z"
		/>
	<path class="st2" d="M98.55,142.76c0,2.68-0.49,5.04-1.48,7.1c-0.98,2.05-2.39,3.77-4.22,5.14c-1.83,1.38-4.05,2.42-6.66,3.12
		c-2.61,0.7-5.54,1.06-8.8,1.06s-6.19-0.35-8.82-1.06c-2.63-0.7-4.86-1.74-6.71-3.12c-1.85-1.38-3.27-3.09-4.27-5.14
		c-1-2.05-1.5-4.42-1.5-7.1s0.5-5.04,1.5-7.1s2.42-3.77,4.27-5.14s4.08-2.42,6.71-3.12c2.63-0.7,5.57-1.06,8.82-1.06
		s6.19,0.35,8.8,1.06c2.61,0.7,4.83,1.74,6.66,3.12c1.83,1.38,3.24,3.09,4.22,5.14C98.06,137.72,98.55,140.08,98.55,142.76z
		 M90.04,142.76c0-1.17-0.18-2.33-0.56-3.49c-0.37-1.16-1.03-2.2-1.98-3.12s-2.24-1.67-3.87-2.25s-3.72-0.86-6.24-0.86
		c-1.7,0-3.19,0.13-4.47,0.4s-2.4,0.63-3.34,1.1s-1.73,1.02-2.36,1.65c-0.64,0.63-1.14,1.3-1.52,2.02s-0.65,1.47-0.81,2.25
		c-0.16,0.78-0.24,1.55-0.24,2.3c0,0.77,0.08,1.55,0.24,2.34c0.16,0.79,0.43,1.54,0.81,2.26c0.38,0.72,0.89,1.39,1.52,2.01
		c0.64,0.62,1.42,1.16,2.36,1.62c0.94,0.46,2.05,0.83,3.34,1.09c1.29,0.27,2.78,0.4,4.47,0.4c2.53,0,4.61-0.29,6.24-0.86
		s2.92-1.32,3.87-2.25c0.95-0.92,1.6-1.96,1.98-3.12C89.85,145.09,90.04,143.93,90.04,142.76z"/>
	<path class="st2" d="M137.31,157.43c-1.11,0.36-2.25,0.68-3.43,0.94s-2.43,0.47-3.73,0.6c-1.31,0.14-2.71,0.2-4.21,0.2
		c-3.18,0-6.1-0.34-8.78-1.02c-2.67-0.68-4.97-1.71-6.9-3.08c-1.93-1.37-3.43-3.08-4.51-5.13c-1.07-2.05-1.61-4.45-1.61-7.19
		s0.54-5.13,1.61-7.19c1.08-2.05,2.58-3.76,4.51-5.13c1.93-1.37,4.23-2.4,6.9-3.08c2.67-0.68,5.6-1.02,8.78-1.02
		c1.5,0,2.9,0.07,4.21,0.2c1.31,0.14,2.55,0.34,3.73,0.6c1.18,0.27,2.32,0.58,3.43,0.94c1.1,0.36,2.2,0.77,3.29,1.23v7.58
		c-0.86-0.47-1.77-0.93-2.72-1.4c-0.95-0.46-2.01-0.88-3.16-1.25c-1.15-0.37-2.42-0.67-3.79-0.91c-1.38-0.23-2.93-0.35-4.66-0.35
		c-2.65,0-4.85,0.27-6.6,0.82c-1.75,0.54-3.14,1.27-4.19,2.18c-1.04,0.91-1.78,1.95-2.2,3.12c-0.42,1.17-0.64,2.39-0.64,3.64
		c0,0.83,0.09,1.65,0.27,2.46c0.18,0.81,0.48,1.57,0.91,2.29c0.42,0.72,0.98,1.38,1.66,1.99c0.68,0.61,1.53,1.13,2.54,1.57
		c1.01,0.44,2.2,0.78,3.55,1.03c1.35,0.25,2.92,0.37,4.69,0.37c1.73,0,3.28-0.11,4.66-0.33c1.38-0.22,2.64-0.51,3.79-0.87
		c1.15-0.36,2.2-0.78,3.16-1.24c0.95-0.46,1.86-0.93,2.72-1.42v7.58C139.51,156.66,138.42,157.07,137.31,157.43z"/>
	<path class="st2" d="M148.46,158.34v-31.2h8.42v31.2H148.46z"/>
	<path class="st2" d="M207.02,142.76c0,2.68-0.49,5.04-1.48,7.1c-0.98,2.05-2.39,3.77-4.22,5.14c-1.83,1.38-4.05,2.42-6.66,3.12
		c-2.61,0.7-5.54,1.06-8.8,1.06c-3.25,0-6.19-0.35-8.82-1.06c-2.63-0.7-4.86-1.74-6.71-3.12c-1.85-1.38-3.27-3.09-4.27-5.14
		c-1-2.05-1.5-4.42-1.5-7.1s0.5-5.04,1.5-7.1s2.42-3.77,4.27-5.14s4.08-2.42,6.71-3.12c2.63-0.7,5.57-1.06,8.82-1.06
		c3.25,0,6.19,0.35,8.8,1.06c2.61,0.7,4.83,1.74,6.66,3.12c1.83,1.38,3.24,3.09,4.22,5.14
		C206.52,137.72,207.02,140.08,207.02,142.76z M198.5,142.76c0-1.17-0.18-2.33-0.56-3.49c-0.37-1.16-1.03-2.2-1.98-3.12
		s-2.24-1.67-3.87-2.25s-3.72-0.86-6.24-0.86c-1.7,0-3.19,0.13-4.47,0.4c-1.29,0.26-2.4,0.63-3.34,1.1s-1.73,1.02-2.36,1.65
		c-0.64,0.63-1.14,1.3-1.52,2.02c-0.38,0.72-0.65,1.47-0.81,2.25c-0.16,0.78-0.24,1.55-0.24,2.3c0,0.77,0.08,1.55,0.24,2.34
		c0.16,0.79,0.43,1.54,0.81,2.26c0.38,0.72,0.89,1.39,1.52,2.01c0.64,0.62,1.42,1.16,2.36,1.62c0.94,0.46,2.05,0.83,3.34,1.09
		c1.29,0.27,2.78,0.4,4.47,0.4c2.53,0,4.61-0.29,6.24-0.86s2.92-1.32,3.87-2.25c0.95-0.92,1.6-1.96,1.98-3.12
		C198.32,145.09,198.5,143.93,198.5,142.76z"/>
</g>
<rect x="72.86" y="-150.57" class="st0" width="38.29" height="44.57"/>
<text transform="matrix(1 0 0 1 72.8571 -143.4466)" style="font-family:'NicoMoji-Regular'; font-size:12px;">RD</text>
</svg>
