<?xml version="1.0" encoding="utf-8"?>
<!-- Generator: Adobe Illustrator 27.1.1, SVG Export Plug-In . SVG Version: 6.00 Build 0)  -->
<svg version="1.1" id="Capa_1" xmlns="http://www.w3.org/2000/svg" xmlns:xlink="http://www.w3.org/1999/xlink" x="0px" y="0px"
	 viewBox="0 0 1018 932" style="enable-background:new 0 0 1018 932;" xml:space="preserve">
<style type="text/css">
	.st0{fill:#F9C9CC;}
	.st1{fill:#C93F40;}
</style>
<rect class="st0" width="1018" height="932"/>
<g>
	<path class="st1" d="M592.72,649.27c0-28.31-9.43-51.33-37.58-51.96v-0.03h-83.51c-2.78,0-5.04,2.25-5.04,5.04v150.9
		c0,2.78,2.25,5.04,5.04,5.04h47.81c2.9,0,5.25-2.35,5.25-5.25V713.4c0-13.79,8.87-22.41,19.99-22.41c11.12,0,19.9,9.01,19.9,23.02
		c0,19.01,0,38.64,0,38.64c0,3.08,2.5,5.59,5.59,5.59h16.93c2.73,0,5.61-2.47,5.61-5.65C592.71,746.55,592.72,649.28,592.72,649.27z
		 M544.69,624.77c11.12,0,20.14,9.01,20.14,20.14s-9.01,20.14-20.14,20.14s-20.14-9.01-20.14-20.14S533.57,624.77,544.69,624.77z"/>
	<path class="st1" d="M513.33,173.89h-47.57c-2.76,0-5.01,2.24-5.01,5.01v149.78c0,2.76,2.24,5.01,5.01,5.01h47.47
		c2.87,0,5.19-2.32,5.16-5.19c-0.05-9.18-0.01-123.91-0.01-149.54C518.38,176.15,516.13,173.89,513.33,173.89z"/>
	<path class="st1" d="M691.18,225.39c0-28.14-9.36-51-37.35-51.63v-0.03h-82.97c-2.76,0-5,2.24-5,5v149.94c0,2.76,2.24,5,5,5h47.51
		c2.89,0,5.22-2.33,5.22-5.22V223.43c0-13.7,8.81-22.26,19.87-22.26c11.04,0,19.77,8.95,19.77,22.88c0,18.88,0,104.09,0,104.09
		c0,3.33,2.48,5.55,5.55,5.55h16.82c2.71,0,5.57-2.46,5.57-5.61C691.17,322.04,691.18,225.4,691.18,225.39z"/>
	<path class="st1" d="M376.76,292.21c0.14-8.38,4.41-15.43,12.02-16.83c22.09-5.83,38.39-25.95,38.39-49.89
		c0-28.1-22.47-50.94-50.42-51.58v-0.03h-19.97h-32.56c-2.76,0-5.01,2.24-5.01,5.01v149.78c0,2.76,2.24,5.01,5.01,5.01h47.47
		c2.86,0,5.19-2.33,5.17-5.19C376.8,318.14,376.66,298.58,376.76,292.21z M355.29,222.65c-1.26-12.7,9.33-23.29,22.03-22.03
		c9.39,0.93,16.99,8.53,17.92,17.92c1.26,12.7-9.33,23.29-22.03,22.03C363.82,239.64,356.22,232.04,355.29,222.65z"/>
	<path class="st1" d="M434.17,737.59c-0.03-3.02-2.48-5.44-5.5-5.46l-37.71-0.04c-8.72-0.7-12.48-8.16-12.12-15.61
		c0.41-8.43,4.44-15.55,12.12-16.96c22.26-5.89,38.67-26.16,38.67-50.26c0-28.32-22.64-51.33-50.81-51.96v-0.03h-20.12h-32.81
		c-2.78,0-5.04,2.26-5.04,5.04v150.91c0,2.78,2.26,5.04,5.04,5.04h103.23c2.78,0,5.04-2.26,5.04-5.04
		C434.17,753.23,434.21,743.91,434.17,737.59z M356.23,644.06c0-11.02,8.94-19.94,19.94-19.94c11.02,0,19.94,8.94,19.94,19.94
		S387.17,664,376.17,664C365.15,664.01,356.23,655.08,356.23,644.06z"/>
	<path class="st1" d="M419.39,407.3v-16.65c0-2.79-2.26-5.06-5.06-5.06H281.27c-2.79,0-5.06,2.26-5.06,5.06v16.65
		c0,2.79,2.26,5.06,5.06,5.06c5.7,0,10.41,0,17.36,0c11.73,0,19.99,9.17,19.99,19.89l0.23,108.97c0,2.72,2.25,4.93,5.03,4.93h47.7
		c2.88,0,5.21-2.29,5.2-5.11c-0.04-6.31,0.08-66.37,0.08-108.78c0-8.13,7-19.89,20.08-19.89c10.05,0,14.24,0,17.41,0
		C417.12,412.35,419.39,410.09,419.39,407.3z"/>
	<path class="st1" d="M707.61,624.2c11.2,0,20.98,0,28.75,0c3,0,5.42-3.19,5.42-6.2v-15.6c0-2.79-2.26-5.04-5.03-5.04H633.67h-0.1
		c-2.79,0-5.04,2.26-5.04,5.04v82.9c0,3.07,2.48,6.02,5.55,6.02h22.16c8.39,0,19.95,7.75,19.95,20.28c0,13.09-12.21,20.6-19.95,20.6
		c-9.21,0-15.6,0-22.17,0c-3.07,0-5.54,2.48-5.54,5.55v15.48c0,2.79,2.26,5.03,5.04,5.03h0.1h103.08c2.79,0,5.04-2.26,5.04-5.04
		v-83.01c0-3-2.43-5.73-5.44-5.73h-28.75c-10.55,0-19.94-9.67-19.94-20.39C687.66,635.73,694.28,624.2,707.61,624.2z"/>
	<path class="st1" d="M578.13,494.26c0,28.26-9.41,51.22-37.51,51.86v0.03h-83.35c-2.78,0-5.04-2.25-5.04-5.04V390.52
		c0-2.78,2.25-5.04,5.04-5.04H505c2.9,0,5.24,2.34,5.24,5.24v105.51c0,13.76,8.86,22.37,19.95,22.37c11.1,0,19.86-8.99,19.86-22.99
		c0-18.98,0-104.56,0-104.56c0-3.35,2.49-5.57,5.57-5.57h16.9c2.72,0,5.6,2.47,5.6,5.64C578.13,397.18,578.13,494.25,578.13,494.26z
		"/>
</g>
</svg>
