<?xml version="1.0" encoding="utf-8"?>
<!-- Generator: Adobe Illustrator 27.1.1, SVG Export Plug-In . SVG Version: 6.00 Build 0)  -->
<svg version="1.1" id="Capa_1" xmlns="http://www.w3.org/2000/svg" xmlns:xlink="http://www.w3.org/1999/xlink" x="0px" y="0px"
	 viewBox="0 0 1018 932" style="enable-background:new 0 0 1018 932;" xml:space="preserve">
<style type="text/css">
	.st0{fill:#010202;}
	.st1{fill:#F8C9CB;}
</style>
<rect y="0" class="st0" width="1018" height="932"/>
<g>
	<path class="st1" d="M422.4,721.8v-15.1c0-2.7-2.2-4.9-4.9-4.9h-99.7h-0.1c-2.7,0-4.9,2.2-4.9,4.9l0,0v145.9l0,0
		c0,2.7,2.2,4.9,4.9,4.9h0.1h47.2c2.7,0,4.9-2.2,4.9-4.9c0,0,0.1-31.7,0.1-40.4c0-12.5,11.2-19.5,19.3-19.5
		c10.8,0,20.3-0.4,27.8-0.4c2.9,0,5.2-2.3,5.2-5.2v-14.7c0-2.9-2.4-5.2-5.2-5.2l-28-0.7c-8.9,0-19.3-6.7-19.3-19.3
		c0-9.5,7.1-19.3,19.7-19.3c10.8,0,20.1,0,27.6,0C420.1,727.8,422.4,724.8,422.4,721.8z"/>
	<path class="st1" d="M746.5,543.9c0-27.4-9.1-49.6-36.3-50.2v0h-80.7c-2.7,0-4.9,2.2-4.9,4.9v145.9c0,2.7,2.2,4.9,4.9,4.9h46.2
		c2.8,0,5.1-2.3,5.1-5.1v-38.3c0-13.3,8.6-21.7,19.3-21.7s19.2,8.7,19.2,22.2c0,18.4,0,37.3,0,37.3c0,3,2.4,5.4,5.4,5.4h16.4
		c2.6,0,5.4-2.4,5.4-5.5C746.5,637.9,746.5,543.9,746.5,543.9z M700.1,520.2c10.8,0,19.5,8.7,19.5,19.5s-8.7,19.5-19.5,19.5
		s-19.5-8.7-19.5-19.5C680.7,528.9,689.4,520.2,700.1,520.2z"/>
	<path class="st1" d="M712.6,752.2c0-27.4-9.1-49.6-36.3-50.2v0h-80.7c-2.7,0-4.9,2.2-4.9,4.9v145.9c0,2.7,2.2,4.9,4.9,4.9h46.2
		c2.8,0,5.1-2.3,5.1-5.1v-38.3c0-13.3,8.6-21.7,19.3-21.7s19.2,8.7,19.2,22.2c0,18.4,0,37.3,0,37.3c0,3,2.4,5.4,5.4,5.4h16.4
		c2.6,0,5.4-2.4,5.4-5.5C712.6,846.2,712.6,752.2,712.6,752.2z M666.1,728.5c10.8,0,19.5,8.7,19.5,19.5s-8.7,19.5-19.5,19.5
		s-19.5-8.7-19.5-19.5S655.4,728.5,666.1,728.5z"/>
	<path class="st1" d="M508.5,74.5h-47.3c-2.7,0-5,2.2-5,5v149c0,2.7,2.2,5,5,5h47.2c2.9,0,5.2-2.3,5.1-5.2c-0.1-9.1,0-123.3,0-148.8
		C513.5,76.7,511.3,74.5,508.5,74.5z"/>
	<path class="st1" d="M523.5,702h-46.2c-2.7,0-4.9,2.2-4.9,4.9v145.5c0,2.7,2.2,4.9,4.9,4.9h46.1c2.8,0,5-2.3,5-5
		c-0.1-8.9,0-120.4,0-145.3C528.5,704.2,526.3,702,523.5,702z"/>
	<path class="st1" d="M389.4,520c10.7,0,20,0,27.4,0c2.9,0,5.2-3,5.2-5.9v-15c0-2.7-2.2-4.8-4.8-4.8h-99h-0.1
		c-2.7,0-4.8,2.2-4.8,4.8v144.8l0,0c0,2.7,2.2,4.8,4.8,4.8h0.1h84.1h14.9l0,0c2.7,0,4.8-2.2,4.8-4.8v-0.1v-54.6
		c0-2.7-2.2-4.8-4.8-4.8h-15.1c-2.9,0-5.5,2.3-5.5,5.2c0,0,0,17.4,0.1,24.8c0,4.6,0.4,6.4-1.1,8.7c-1.6,2.4-6.3,1.8-6.3,1.8
		c-12.3,0-19.2-12.4-19.2-21.1c0-12.4-0.2-52.2-0.2-64.7C369.9,529.7,377,520,389.4,520z"/>
	<path class="st1" d="M369.3,401.5c0.1-8.2,4.3-15.2,11.8-16.5c21.7-5.7,37.8-25.5,37.8-49.1c0-27.6-22.1-50.1-49.6-50.7v0h-19.6
		h-32c-2.7,0-4.9,2.2-4.9,4.9v147.3c0,2.7,2.2,4.9,4.9,4.9h46.7c2.8,0,5.1-2.3,5.1-5.1C369.3,427,369.2,407.8,369.3,401.5z
		 M348.2,333.1c-1.2-12.5,9.2-22.9,21.7-21.7c9.2,0.9,16.7,8.4,17.6,17.6c1.2,12.5-9.2,22.9-21.7,21.7
		C356.6,349.8,349.1,342.3,348.2,333.1z"/>
	<path class="st1" d="M578.5,630.1c0-3-2.4-5.3-5.4-5.4l-36.9,0c-8.5-0.7-12.2-8-11.9-15.3c0.4-8.3,4.4-15.2,11.9-16.6
		C558,587,574,567.2,574,543.5c0-27.7-22.2-50.3-49.8-50.9v0h-19.7h-32.2c-2.7,0-4.9,2.2-4.9,4.9v147.9c0,2.7,2.2,4.9,4.9,4.9h101.1
		c2.7,0,4.9-2.2,4.9-4.9C578.5,645.4,578.5,636.3,578.5,630.1z M502.1,538.5c0-10.8,8.8-19.5,19.5-19.5c10.8,0,19.5,8.8,19.5,19.5
		c0,10.8-8.8,19.5-19.5,19.5C510.9,558,502.1,549.3,502.1,538.5z"/>
	<path class="st1" d="M583,290.1c0-3-2.2-5-5-5l-66.5,0h-46.7l0,0c-2.7,0-4.9,2.2-4.9,4.9l0,0v146.6c0,2.7,2.2,5.5,4.9,5.5l0,0h46.7
		h34.8l31.7,0c2.8,0,5-2.8,5-5.5c0,0,0-45.4,0-45.8c0-2.6,0-51.8,0-54.3C583,336.1,583,290.1,583,290.1z M555.5,398.6
		c-1.4,9.5-9.5,16.7-19.4,16.7c-10.1,0-18.3-7.6-19.5-17.3c0,0,0-0.1,0-0.1l0,0v-69.4h0.1c1.5-9.4,9.6-16.6,19.4-16.6
		c9.8,0,18,7.3,19.4,16.7c0,0.9-0.1,1.7-0.1,2.5v64.9C555.4,396.9,555.5,397.8,555.5,398.6z"/>
	<path class="st1" d="M413,95.9V79.5c0-2.8-2.2-5-5-5H276.4c-2.8,0-5,2.2-5,5v16.5c0,2.8,2.2,5,5,5c5.6,0,10.3,0,17.2,0
		c11.6,0,19.8,9.1,19.8,19.7l0.2,107.8c0,2.7,2.2,4.9,5,4.9h47.2c2.9,0,5.1-2.3,5.1-5.1c0-6.2,0.1-65.6,0.1-107.6
		c0-8,6.9-19.7,19.9-19.7c9.9,0,14.1,0,17.2,0C410.8,100.9,413,98.7,413,95.9z"/>
</g>
</svg>
