<?xml version="1.0" encoding="utf-8"?>
<!-- Generator: Adobe Illustrator 27.1.1, SVG Export Plug-In . SVG Version: 6.00 Build 0)  -->
<svg version="1.1" id="Capa_1" xmlns="http://www.w3.org/2000/svg" xmlns:xlink="http://www.w3.org/1999/xlink" x="0px" y="0px"
	 viewBox="0 0 595.28 591.86" style="enable-background:new 0 0 595.28 591.86;" xml:space="preserve">
<style type="text/css">
	.st0{fill:#FFFFFF;}
</style>
<path class="st0" d="M301.22,0C138.91,0,7.34,131.58,7.34,293.89c0,52.48,13.77,101.74,37.88,144.39L0,591.86l165.7-37.14
	l-0.03-0.03c40.56,21.13,86.66,33.08,135.56,33.08c162.31,0,293.89-131.58,293.89-293.89S463.53,0,301.22,0z M405.04,434.02
	c-13.9,3.74-86.61,17.09-179.09-73.25C135.1,271.5,135.1,216.44,164.5,172.08c7.48-11.28,21.88-20.9,47.37-15.7
	c4.43,0.9,9.22,3.93,11.09,8.05c11.56,25.43,17.45,37.59,25.46,59.5c1.48,4.03,4.15,9.01-3.86,21.31
	c-12.29,17.11-20.19,24.66-20.19,24.66s37.95,79.65,116.53,97.82c14.51-16.82,23.27-27.08,28.53-33.32
	c4.66-5.52,12.47-7.13,18.94-3.92l58.14,28.87c4.97,2.47,8.13,7.49,8.27,13.04C455.16,387.82,449.76,419.24,405.04,434.02z"/>
</svg>
